STARTFONT 2.1
COMMENT
COMMENT Converted from OpenType font "oliv.ttf" by "otf2bdf 3.0".
COMMENT
FONT -FreeType-Ac437 OlivettiThin 9x14-Medium-R-Normal--58-580-72-72-P-175-ISO10646-1
SIZE 58 72 72
FONTBOUNDINGBOX 24 51 0 -7
STARTPROPERTIES 19
FOUNDRY "FreeType"
FAMILY_NAME "Ac437 OlivettiThin 9x14"
WEIGHT_NAME "Medium"
SLANT "R"
SETWIDTH_NAME "Normal"
ADD_STYLE_NAME ""
PIXEL_SIZE 58
POINT_SIZE 580
RESOLUTION_X 72
RESOLUTION_Y 72
SPACING "P"
AVERAGE_WIDTH 175
CHARSET_REGISTRY "ISO10646"
CHARSET_ENCODING "1"
FONT_ASCENT 43
FONT_DESCENT 7
COPYRIGHT "Outline (vector) version by VileR, 2020"
_OTF_FONTFILE "oliv.ttf"
_OTF_PSNAME "Ac437_OlivettiThin_9x14"
ENDPROPERTIES
CHARS 288
STARTCHAR 0000
ENCODING 0
SWIDTH 413 0
DWIDTH 24 0
BBX 0 0 0 0
BITMAP
ENDCHAR
STARTCHAR 0001
ENCODING 1
SWIDTH 413 0
DWIDTH 24 0
BBX 22 33 0 0
BITMAP
07FF00
07FF00
07FF00
07FF00
1800E0
1800E0
1800E0
1800E0
E0001C
E0001C
E0001C
E7031C
E7031C
E7031C
E7031C
E0001C
E0001C
E0001C
E7031C
E7031C
E7031C
E7031C
E0FC1C
E0FC1C
E0FC1C
E0FC1C
1800E0
1800E0
1800E0
07FF00
07FF00
07FF00
07FF00
ENDCHAR
STARTCHAR 0002
ENCODING 2
SWIDTH 413 0
DWIDTH 24 0
BBX 22 33 0 0
BITMAP
07FF00
07FF00
07FF00
07FF00
1FFFE0
1FFFE0
1FFFE0
1FFFE0
FFFFFC
FFFFFC
FFFFFC
F8FCFC
F8FCFC
F8FCFC
F8FCFC
FFFFFC
FFFFFC
FFFFFC
FFFFFC
F8FCFC
F8FCFC
F8FCFC
FF03FC
FF03FC
FF03FC
FF03FC
1FFFE0
1FFFE0
1FFFE0
07FF00
07FF00
07FF00
07FF00
ENDCHAR
STARTCHAR 0003
ENCODING 3
SWIDTH 413 0
DWIDTH 24 0
BBX 19 33 0 0
BITMAP
1F1F00
1F1F00
1F1F00
1F1F00
FFFFE0
FFFFE0
FFFFE0
FFFFE0
FFFFE0
FFFFE0
FFFFE0
FFFFE0
FFFFE0
FFFFE0
FFFFE0
1FFF00
1FFF00
1FFF00
1FFF00
1FFF00
1FFF00
1FFF00
07FC00
07FC00
07FC00
07FC00
07FC00
07FC00
07FC00
00E000
00E000
00E000
00E000
ENDCHAR
STARTCHAR 0004
ENCODING 4
SWIDTH 413 0
DWIDTH 24 0
BBX 19 25 0 4
BITMAP
00E000
00E000
00E000
00E000
07FC00
07FC00
07FC00
1FFF00
1FFF00
1FFF00
1FFF00
FFFFE0
FFFFE0
FFFFE0
FFFFE0
1FFF00
1FFF00
1FFF00
07FC00
07FC00
07FC00
07FC00
00E000
00E000
00E000
ENDCHAR
STARTCHAR 0005
ENCODING 5
SWIDTH 413 0
DWIDTH 24 0
BBX 19 33 0 0
BITMAP
00E000
00E000
00E000
00E000
07FC00
07FC00
07FC00
07FC00
07FC00
07FC00
07FC00
18E300
18E300
18E300
18E300
FFFFE0
FFFFE0
FFFFE0
FFFFE0
FFFFE0
FFFFE0
FFFFE0
18E300
18E300
18E300
18E300
00E000
00E000
00E000
07FC00
07FC00
07FC00
07FC00
ENDCHAR
STARTCHAR 0006
ENCODING 6
SWIDTH 413 0
DWIDTH 24 0
BBX 19 33 0 0
BITMAP
00E000
00E000
00E000
00E000
07FC00
07FC00
07FC00
07FC00
1FFF00
1FFF00
1FFF00
FFFFE0
FFFFE0
FFFFE0
FFFFE0
FFFFE0
FFFFE0
FFFFE0
FFFFE0
FFFFE0
FFFFE0
FFFFE0
18E300
18E300
18E300
18E300
00E000
00E000
00E000
07FC00
07FC00
07FC00
07FC00
ENDCHAR
STARTCHAR 0007
ENCODING 7
SWIDTH 413 0
DWIDTH 24 0
BBX 16 22 3 7
BITMAP
3FF8
3FF8
3FF8
3FF8
FFFF
FFFF
FFFF
FFFF
FFFF
FFFF
FFFF
FFFF
FFFF
FFFF
FFFF
FFFF
FFFF
FFFF
3FF8
3FF8
3FF8
3FF8
ENDCHAR
STARTCHAR 0008
ENCODING 8
SWIDTH 413 0
DWIDTH 24 0
BBX 22 51 0 -7
BITMAP
FFFFFC
FFFFFC
FFFFFC
FFFFFC
FFFFFC
FFFFFC
FFFFFC
FFFFFC
FFFFFC
FFFFFC
FFFFFC
FFFFFC
FFFFFC
FFFFFC
FFFFFC
F800FC
F800FC
F800FC
F800FC
E0001C
E0001C
E0001C
E0001C
E0001C
E0001C
E0001C
E0001C
E0001C
E0001C
E0001C
E0001C
E0001C
E0001C
F800FC
F800FC
F800FC
F800FC
FFFFFC
FFFFFC
FFFFFC
FFFFFC
FFFFFC
FFFFFC
FFFFFC
FFFFFC
FFFFFC
FFFFFC
FFFFFC
FFFFFC
FFFFFC
FFFFFC
ENDCHAR
STARTCHAR 0009
ENCODING 9
SWIDTH 413 0
DWIDTH 24 0
BBX 16 22 3 7
BITMAP
3FF8
3FF8
3FF8
3FF8
C007
C007
C007
C007
C007
C007
C007
C007
C007
C007
C007
C007
C007
C007
3FF8
3FF8
3FF8
3FF8
ENDCHAR
STARTCHAR 000A
ENCODING 10
SWIDTH 413 0
DWIDTH 24 0
BBX 22 51 0 -7
BITMAP
FFFFFC
FFFFFC
FFFFFC
FFFFFC
FFFFFC
FFFFFC
FFFFFC
FFFFFC
FFFFFC
FFFFFC
FFFFFC
FFFFFC
FFFFFC
FFFFFC
FFFFFC
F800FC
F800FC
F800FC
F800FC
E7FF1C
E7FF1C
E7FF1C
E7FF1C
E7FF1C
E7FF1C
E7FF1C
E7FF1C
E7FF1C
E7FF1C
E7FF1C
E7FF1C
E7FF1C
E7FF1C
F800FC
F800FC
F800FC
F800FC
FFFFFC
FFFFFC
FFFFFC
FFFFFC
FFFFFC
FFFFFC
FFFFFC
FFFFFC
FFFFFC
FFFFFC
FFFFFC
FFFFFC
FFFFFC
FFFFFC
ENDCHAR
STARTCHAR 000B
ENCODING 11
SWIDTH 413 0
DWIDTH 24 0
BBX 22 33 0 0
BITMAP
001FFC
001FFC
001FFC
001FFC
0000FC
0000FC
0000FC
0000FC
00031C
00031C
00031C
1FFC1C
1FFC1C
1FFC1C
1FFC1C
E01C00
E01C00
E01C00
E01C00
E01C00
E01C00
E01C00
E01C00
E01C00
E01C00
E01C00
E01C00
E01C00
E01C00
1FE000
1FE000
1FE000
1FE000
ENDCHAR
STARTCHAR 000C
ENCODING 12
SWIDTH 413 0
DWIDTH 24 0
BBX 13 33 3 0
BITMAP
3FE0
3FE0
3FE0
3FE0
C018
C018
C018
C018
C018
C018
C018
C018
C018
C018
C018
C018
C018
C018
FFF8
3FE0
3FE0
3FE0
0700
0700
0700
0700
FFF8
FFF8
FFF8
0700
0700
0700
0700
ENDCHAR
STARTCHAR 000D
ENCODING 13
SWIDTH 413 0
DWIDTH 24 0
BBX 19 48 0 -4
BITMAP
00E000
00E000
00E000
00E000
00FC00
00FC00
00FC00
00FC00
00FF00
00FF00
00FF00
00E3E0
00E3E0
00E3E0
00E3E0
00E0E0
00E0E0
00E0E0
00E0E0
00E0E0
00E0E0
00E0E0
00E300
00E300
00E300
00E300
00E000
00E000
00E000
00E000
00E000
00E000
00E000
1FE000
1FE000
1FE000
1FE000
FF0000
FF0000
FF0000
FF0000
FF0000
FF0000
FF0000
F80000
F80000
F80000
F80000
ENDCHAR
STARTCHAR 000E
ENCODING 14
SWIDTH 413 0
DWIDTH 24 0
BBX 19 51 0 -7
BITMAP
070000
070000
070000
070000
07E000
07E000
07E000
07E000
071C00
071C00
071C00
07E300
07E300
07E300
07E300
071CE0
071CE0
071CE0
071CE0
0703E0
0703E0
0703E0
0700E0
0700E0
0700E0
0700E0
0700E0
0700E0
0700E0
1F00E0
1F00E0
1F00E0
1F00E0
FF00E0
FF00E0
FF00E0
FF00E0
F800E0
F800E0
F800E0
0003E0
0003E0
0003E0
0003E0
001FE0
001FE0
001FE0
001FE0
001F00
001F00
001F00
ENDCHAR
STARTCHAR 000F
ENCODING 15
SWIDTH 413 0
DWIDTH 24 0
BBX 19 33 0 0
BITMAP
00E000
00E000
00E000
00E000
E0E0E0
E0E0E0
E0E0E0
E0E0E0
1FFF00
1FFF00
1FFF00
180300
180300
180300
180300
F803E0
F803E0
F803E0
F803E0
180300
180300
180300
1FFF00
1FFF00
1FFF00
1FFF00
E0E0E0
E0E0E0
E0E0E0
00E000
00E000
00E000
00E000
ENDCHAR
STARTCHAR 0010
ENCODING 16
SWIDTH 413 0
DWIDTH 24 0
BBX 13 33 3 0
BITMAP
C000
C000
C000
C000
F800
F800
F800
F800
FF00
FF00
FF00
FFE0
FFE0
FFE0
FFE0
FFF8
FFF8
FFF8
FFF8
FFE0
FFE0
FFE0
FF00
FF00
FF00
FF00
F800
F800
F800
C000
C000
C000
C000
ENDCHAR
STARTCHAR 0011
ENCODING 17
SWIDTH 413 0
DWIDTH 24 0
BBX 13 33 3 0
BITMAP
0018
0018
0018
0018
00F8
00F8
00F8
00F8
07F8
07F8
07F8
3FF8
3FF8
3FF8
3FF8
FFF8
FFF8
FFF8
FFF8
3FF8
3FF8
3FF8
07F8
07F8
07F8
07F8
00F8
00F8
00F8
0018
0018
0018
0018
ENDCHAR
STARTCHAR 0012
ENCODING 18
SWIDTH 413 0
DWIDTH 24 0
BBX 13 33 3 0
BITMAP
0700
0700
0700
0700
3FE0
3FE0
3FE0
3FE0
C718
C718
C718
0700
0700
0700
0700
0700
0700
0700
0700
0700
0700
0700
C718
C718
C718
C718
3FE0
3FE0
3FE0
0700
0700
0700
0700
ENDCHAR
STARTCHAR 0013
ENCODING 19
SWIDTH 413 0
DWIDTH 24 0
BBX 11 33 5 0
BITMAP
E060
E060
E060
E060
E060
E060
E060
E060
E060
E060
E060
E060
E060
E060
E060
E060
E060
E060
E060
E060
E060
E060
0000
0000
0000
0000
E060
E060
E060
E060
E060
E060
E060
ENDCHAR
STARTCHAR 0014
ENCODING 20
SWIDTH 413 0
DWIDTH 24 0
BBX 19 33 0 0
BITMAP
1FFFE0
1FFFE0
1FFFE0
1FFFE0
E0E300
E0E300
E0E300
E0E300
E0E300
E0E300
E0E300
E0E300
E0E300
E0E300
E0E300
1FE300
1FE300
1FE300
1FE300
00E300
00E300
00E300
00E300
00E300
00E300
00E300
00E300
00E300
00E300
00E300
00E300
00E300
00E300
ENDCHAR
STARTCHAR 0015
ENCODING 21
SWIDTH 413 0
DWIDTH 24 0
BBX 16 40 3 -4
BITMAP
07F8
07F8
07F8
3800
3800
3800
3800
0700
0700
0700
0700
38E0
38E0
38E0
C018
C018
C018
C018
C007
C007
C007
F807
3807
3807
3807
0718
0718
0718
0718
00E0
00E0
00E0
0018
0018
0018
0018
3FE0
3FE0
3FE0
3FE0
ENDCHAR
STARTCHAR 0016
ENCODING 22
SWIDTH 413 0
DWIDTH 24 0
BBX 19 11 0 0
BITMAP
FFFFE0
FFFFE0
FFFFE0
FFFFE0
FFFFE0
FFFFE0
FFFFE0
FFFFE0
FFFFE0
FFFFE0
FFFFE0
ENDCHAR
STARTCHAR 0017
ENCODING 23
SWIDTH 413 0
DWIDTH 24 0
BBX 13 37 3 -4
BITMAP
0700
0700
0700
0700
3FE0
3FE0
3FE0
3FE0
C718
C718
C718
0700
0700
0700
0700
0700
0700
0700
0700
0700
0700
0700
C718
C718
C718
C718
3FE0
3FE0
3FE0
0700
0700
0700
0700
FFF8
FFF8
FFF8
FFF8
ENDCHAR
STARTCHAR 0018
ENCODING 24
SWIDTH 413 0
DWIDTH 24 0
BBX 13 33 3 0
BITMAP
0700
0700
0700
0700
3FE0
3FE0
3FE0
3FE0
C718
C718
C718
0700
0700
0700
0700
0700
0700
0700
0700
0700
0700
0700
0700
0700
0700
0700
0700
0700
0700
0700
0700
0700
0700
ENDCHAR
STARTCHAR 0019
ENCODING 25
SWIDTH 413 0
DWIDTH 24 0
BBX 13 33 3 0
BITMAP
0700
0700
0700
0700
0700
0700
0700
0700
0700
0700
0700
0700
0700
0700
0700
0700
0700
0700
0700
0700
0700
0700
C718
C718
C718
C718
3FE0
3FE0
3FE0
0700
0700
0700
0700
ENDCHAR
STARTCHAR 001A
ENCODING 26
SWIDTH 413 0
DWIDTH 24 0
BBX 19 18 0 7
BITMAP
001C00
001C00
001C00
000300
000300
000300
000300
FFFFE0
FFFFE0
FFFFE0
FFFFE0
000300
000300
000300
001C00
001C00
001C00
001C00
ENDCHAR
STARTCHAR 001B
ENCODING 27
SWIDTH 413 0
DWIDTH 24 0
BBX 19 18 0 7
BITMAP
070000
070000
070000
180000
180000
180000
180000
FFFFE0
FFFFE0
FFFFE0
FFFFE0
180000
180000
180000
070000
070000
070000
070000
ENDCHAR
STARTCHAR 001C
ENCODING 28
SWIDTH 413 0
DWIDTH 24 0
BBX 19 18 0 0
BITMAP
E00000
E00000
E00000
E00000
E00000
E00000
E00000
E00000
E00000
E00000
E00000
E00000
E00000
E00000
FFFFE0
FFFFE0
FFFFE0
FFFFE0
ENDCHAR
STARTCHAR 001D
ENCODING 29
SWIDTH 413 0
DWIDTH 24 0
BBX 19 18 0 7
BITMAP
071C00
071C00
071C00
180300
180300
180300
180300
FFFFE0
FFFFE0
FFFFE0
FFFFE0
180300
180300
180300
071C00
071C00
071C00
071C00
ENDCHAR
STARTCHAR 001E
ENCODING 30
SWIDTH 413 0
DWIDTH 24 0
BBX 19 18 0 7
BITMAP
00E000
00E000
00E000
07FC00
07FC00
07FC00
07FC00
1FFF00
1FFF00
1FFF00
FFFFE0
FFFFE0
FFFFE0
FFFFE0
FFFFE0
FFFFE0
FFFFE0
FFFFE0
ENDCHAR
STARTCHAR 001F
ENCODING 31
SWIDTH 413 0
DWIDTH 24 0
BBX 19 18 0 7
BITMAP
FFFFE0
FFFFE0
FFFFE0
FFFFE0
FFFFE0
FFFFE0
FFFFE0
1FFF00
1FFF00
1FFF00
1FFF00
07FC00
07FC00
07FC00
00E000
00E000
00E000
00E000
ENDCHAR
STARTCHAR 0020
ENCODING 32
SWIDTH 413 0
DWIDTH 24 0
BBX 0 0 0 0
BITMAP
ENDCHAR
STARTCHAR 0021
ENCODING 33
SWIDTH 413 0
DWIDTH 24 0
BBX 3 33 8 0
BITMAP
E0
E0
E0
E0
E0
E0
E0
E0
E0
E0
E0
E0
E0
E0
E0
E0
E0
E0
E0
E0
E0
E0
00
00
00
00
E0
E0
E0
E0
E0
E0
E0
ENDCHAR
STARTCHAR 0022
ENCODING 34
SWIDTH 413 0
DWIDTH 24 0
BBX 13 15 3 18
BITMAP
C018
C018
C018
C018
C018
C018
C018
C018
C018
C018
C018
C018
C018
C018
C018
ENDCHAR
STARTCHAR 0023
ENCODING 35
SWIDTH 413 0
DWIDTH 24 0
BBX 19 33 0 0
BITMAP
180300
180300
180300
180300
180300
180300
180300
180300
FFFFE0
FFFFE0
FFFFE0
180300
180300
180300
180300
180300
180300
180300
FFFFE0
FFFFE0
FFFFE0
FFFFE0
180300
180300
180300
180300
180300
180300
180300
180300
180300
180300
180300
ENDCHAR
STARTCHAR 0024
ENCODING 36
SWIDTH 413 0
DWIDTH 24 0
BBX 19 40 0 -4
BITMAP
00E000
00E000
00E000
1FFF00
1FFF00
1FFF00
1FFF00
E0E000
E0E000
E0E000
E0E000
E0E000
E0E000
E0E000
E0E000
E0E000
E0E000
E0E000
1FFF00
1FFF00
1FFF00
1FFFE0
00E0E0
00E0E0
00E0E0
00E0E0
00E0E0
00E0E0
00E0E0
00E0E0
00E0E0
00E0E0
FFFF00
FFFF00
FFFF00
FFFF00
00E000
00E000
00E000
00E000
ENDCHAR
STARTCHAR 0025
ENCODING 37
SWIDTH 413 0
DWIDTH 24 0
BBX 19 33 0 0
BITMAP
1F0000
1F0000
1F0000
1F0000
E0E0E0
E0E0E0
E0E0E0
E0E0E0
E0E300
E0E300
E0E300
1F1C00
1F1C00
1F1C00
1F1C00
00E000
00E000
00E000
07FF00
071F00
071F00
071F00
18E0E0
18E0E0
18E0E0
18E0E0
E0E0E0
E0E0E0
E0E0E0
001F00
001F00
001F00
001F00
ENDCHAR
STARTCHAR 0026
ENCODING 38
SWIDTH 413 0
DWIDTH 24 0
BBX 19 33 0 0
BITMAP
07E000
07E000
07E000
07E000
181C00
181C00
181C00
181C00
181C00
181C00
181C00
18E000
18E000
18E000
18E000
070000
070000
070000
1FE0E0
18E0E0
18E0E0
18E0E0
E01CE0
E01CE0
E01CE0
E01CE0
E00300
E00300
E00300
1FFCE0
1FFCE0
1FFCE0
1FFCE0
ENDCHAR
STARTCHAR 0027
ENCODING 39
SWIDTH 413 0
DWIDTH 24 0
BBX 3 15 8 18
BITMAP
E0
E0
E0
E0
E0
E0
E0
E0
E0
E0
E0
E0
E0
E0
E0
ENDCHAR
STARTCHAR 0028
ENCODING 40
SWIDTH 413 0
DWIDTH 24 0
BBX 9 33 5 0
BITMAP
0380
0380
0380
0380
1C00
1C00
1C00
1C00
E000
E000
E000
E000
E000
E000
E000
E000
E000
E000
E000
E000
E000
E000
E000
E000
E000
E000
1C00
1C00
1C00
0380
0380
0380
0380
ENDCHAR
STARTCHAR 0029
ENCODING 41
SWIDTH 413 0
DWIDTH 24 0
BBX 9 33 5 0
BITMAP
E000
E000
E000
E000
1C00
1C00
1C00
1C00
0380
0380
0380
0380
0380
0380
0380
0380
0380
0380
0380
0380
0380
0380
0380
0380
0380
0380
1C00
1C00
1C00
E000
E000
E000
E000
ENDCHAR
STARTCHAR 002A
ENCODING 42
SWIDTH 413 0
DWIDTH 24 0
BBX 13 22 3 11
BITMAP
0700
0700
0700
0700
C718
C718
C718
C718
3FE0
3FE0
3FE0
3FE0
3FE0
3FE0
3FE0
C718
C718
C718
C718
0700
0700
0700
ENDCHAR
STARTCHAR 002B
ENCODING 43
SWIDTH 413 0
DWIDTH 24 0
BBX 19 25 0 4
BITMAP
00E000
00E000
00E000
00E000
00E000
00E000
00E000
00E000
00E000
00E000
00E000
FFFFE0
FFFFE0
FFFFE0
FFFFE0
00E000
00E000
00E000
00E000
00E000
00E000
00E000
00E000
00E000
00E000
ENDCHAR
STARTCHAR 002C
ENCODING 44
SWIDTH 413 0
DWIDTH 24 0
BBX 6 14 8 -7
BITMAP
FC
FC
FC
FC
FC
FC
FC
1C
1C
1C
1C
E0
E0
E0
ENDCHAR
STARTCHAR 002D
ENCODING 45
SWIDTH 413 0
DWIDTH 24 0
BBX 19 4 0 14
BITMAP
FFFFE0
FFFFE0
FFFFE0
FFFFE0
ENDCHAR
STARTCHAR 002E
ENCODING 46
SWIDTH 413 0
DWIDTH 24 0
BBX 6 7 8 0
BITMAP
FC
FC
FC
FC
FC
FC
FC
ENDCHAR
STARTCHAR 002F
ENCODING 47
SWIDTH 413 0
DWIDTH 24 0
BBX 19 25 0 4
BITMAP
0000E0
0000E0
0000E0
0000E0
000300
000300
000300
001C00
001C00
001C00
001C00
00E000
00E000
00E000
07E000
070000
070000
070000
180000
180000
180000
180000
E00000
E00000
E00000
ENDCHAR
STARTCHAR 0030
ENCODING 48
SWIDTH 413 0
DWIDTH 24 0
BBX 19 33 0 0
BITMAP
1FFF00
1FFF00
1FFF00
1FFF00
E000E0
E000E0
E000E0
E000E0
E000E0
E000E0
E000E0
E000E0
E000E0
E000E0
E000E0
E0E0E0
E0E0E0
E0E0E0
E0E0E0
E000E0
E000E0
E000E0
E000E0
E000E0
E000E0
E000E0
E000E0
E000E0
E000E0
1FFF00
1FFF00
1FFF00
1FFF00
ENDCHAR
STARTCHAR 0031
ENCODING 49
SWIDTH 413 0
DWIDTH 24 0
BBX 8 33 3 0
BITMAP
07
07
07
07
FF
FF
FF
FF
07
07
07
07
07
07
07
07
07
07
07
07
07
07
07
07
07
07
07
07
07
07
07
07
07
ENDCHAR
STARTCHAR 0032
ENCODING 50
SWIDTH 413 0
DWIDTH 24 0
BBX 19 33 0 0
BITMAP
1FFF00
1FFF00
1FFF00
1FFF00
E000E0
E000E0
E000E0
E000E0
E000E0
E000E0
E000E0
000300
000300
000300
000300
00FC00
00FC00
00FC00
07FC00
070000
070000
070000
180000
180000
180000
180000
E00000
E00000
E00000
FFFFE0
FFFFE0
FFFFE0
FFFFE0
ENDCHAR
STARTCHAR 0033
ENCODING 51
SWIDTH 413 0
DWIDTH 24 0
BBX 19 33 0 0
BITMAP
1FFF00
1FFF00
1FFF00
1FFF00
E000E0
E000E0
E000E0
E000E0
0000E0
0000E0
0000E0
0000E0
0000E0
0000E0
0000E0
00FF00
00FF00
00FF00
00FFE0
0000E0
0000E0
0000E0
0000E0
0000E0
0000E0
0000E0
E000E0
E000E0
E000E0
1FFF00
1FFF00
1FFF00
1FFF00
ENDCHAR
STARTCHAR 0034
ENCODING 52
SWIDTH 413 0
DWIDTH 24 0
BBX 19 33 0 0
BITMAP
000300
000300
000300
000300
001F00
001F00
001F00
001F00
00E300
00E300
00E300
070300
070300
070300
070300
180300
180300
180300
F80300
E00300
E00300
E00300
FFFFE0
FFFFE0
FFFFE0
FFFFE0
000300
000300
000300
000300
000300
000300
000300
ENDCHAR
STARTCHAR 0035
ENCODING 53
SWIDTH 413 0
DWIDTH 24 0
BBX 19 33 0 0
BITMAP
FFFFE0
FFFFE0
FFFFE0
FFFFE0
E00000
E00000
E00000
E00000
E00000
E00000
E00000
FFFF00
FFFF00
FFFF00
FFFF00
E000E0
E000E0
E000E0
E000E0
0000E0
0000E0
0000E0
0000E0
0000E0
0000E0
0000E0
E000E0
E000E0
E000E0
1FFF00
1FFF00
1FFF00
1FFF00
ENDCHAR
STARTCHAR 0036
ENCODING 54
SWIDTH 413 0
DWIDTH 24 0
BBX 19 33 0 0
BITMAP
07FF00
07FF00
07FF00
07FF00
180000
180000
180000
180000
E00000
E00000
E00000
E00000
E00000
E00000
E00000
FFFF00
FFFF00
FFFF00
FFFFE0
E000E0
E000E0
E000E0
E000E0
E000E0
E000E0
E000E0
E000E0
E000E0
E000E0
1FFF00
1FFF00
1FFF00
1FFF00
ENDCHAR
STARTCHAR 0037
ENCODING 55
SWIDTH 413 0
DWIDTH 24 0
BBX 19 33 0 0
BITMAP
FFFFE0
FFFFE0
FFFFE0
FFFFE0
0000E0
0000E0
0000E0
0000E0
0000E0
0000E0
0000E0
000300
000300
000300
000300
001C00
001C00
001C00
00FC00
00E000
00E000
00E000
00E000
00E000
00E000
00E000
070000
070000
070000
070000
070000
070000
070000
ENDCHAR
STARTCHAR 0038
ENCODING 56
SWIDTH 413 0
DWIDTH 24 0
BBX 19 33 0 0
BITMAP
1FFF00
1FFF00
1FFF00
1FFF00
E000E0
E000E0
E000E0
E000E0
E000E0
E000E0
E000E0
E000E0
E000E0
E000E0
E000E0
1FFF00
1FFF00
1FFF00
FFFFE0
E000E0
E000E0
E000E0
E000E0
E000E0
E000E0
E000E0
E000E0
E000E0
E000E0
1FFF00
1FFF00
1FFF00
1FFF00
ENDCHAR
STARTCHAR 0039
ENCODING 57
SWIDTH 413 0
DWIDTH 24 0
BBX 19 33 0 0
BITMAP
1FFF00
1FFF00
1FFF00
1FFF00
E000E0
E000E0
E000E0
E000E0
E000E0
E000E0
E000E0
E000E0
E000E0
E000E0
E000E0
1FFFE0
1FFFE0
1FFFE0
1FFFE0
0000E0
0000E0
0000E0
0000E0
0000E0
0000E0
0000E0
000300
000300
000300
1FFC00
1FFC00
1FFC00
1FFC00
ENDCHAR
STARTCHAR 003A
ENCODING 58
SWIDTH 413 0
DWIDTH 24 0
BBX 6 25 8 0
BITMAP
FC
FC
FC
FC
FC
FC
FC
00
00
00
00
00
00
00
00
00
00
00
FC
FC
FC
FC
FC
FC
FC
ENDCHAR
STARTCHAR 003B
ENCODING 59
SWIDTH 413 0
DWIDTH 24 0
BBX 6 32 8 -7
BITMAP
FC
FC
FC
FC
FC
FC
FC
00
00
00
00
00
00
00
00
00
00
00
FC
FC
FC
FC
FC
FC
FC
1C
1C
1C
1C
E0
E0
E0
ENDCHAR
STARTCHAR 003C
ENCODING 60
SWIDTH 413 0
DWIDTH 24 0
BBX 13 33 3 0
BITMAP
0018
0018
0018
0018
00E0
00E0
00E0
00E0
0700
0700
0700
3800
3800
3800
3800
C000
C000
C000
F800
3800
3800
3800
0700
0700
0700
0700
00E0
00E0
00E0
0018
0018
0018
0018
ENDCHAR
STARTCHAR 003D
ENCODING 61
SWIDTH 413 0
DWIDTH 24 0
BBX 19 15 0 7
BITMAP
FFFFE0
FFFFE0
FFFFE0
FFFFE0
000000
000000
000000
000000
000000
000000
000000
FFFFE0
FFFFE0
FFFFE0
FFFFE0
ENDCHAR
STARTCHAR 003E
ENCODING 62
SWIDTH 413 0
DWIDTH 24 0
BBX 13 33 3 0
BITMAP
C000
C000
C000
C000
3800
3800
3800
3800
0700
0700
0700
00E0
00E0
00E0
00E0
0018
0018
0018
00F8
00E0
00E0
00E0
0700
0700
0700
0700
3800
3800
3800
C000
C000
C000
C000
ENDCHAR
STARTCHAR 003F
ENCODING 63
SWIDTH 413 0
DWIDTH 24 0
BBX 19 33 0 0
BITMAP
1FFF00
1FFF00
1FFF00
1FFF00
E000E0
E000E0
E000E0
E000E0
0000E0
0000E0
0000E0
000300
000300
000300
000300
001C00
001C00
001C00
00FC00
00E000
00E000
00E000
000000
000000
000000
000000
00E000
00E000
00E000
00E000
00E000
00E000
00E000
ENDCHAR
STARTCHAR 0040
ENCODING 64
SWIDTH 413 0
DWIDTH 24 0
BBX 19 33 0 0
BITMAP
07FF00
07FF00
07FF00
07FF00
1800E0
1800E0
1800E0
1800E0
E0FCE0
E0FCE0
E0FCE0
E71CE0
E71CE0
E71CE0
E71CE0
E71CE0
E71CE0
E71CE0
E71CE0
E71CE0
E71CE0
E71CE0
E0E300
E0E300
E0E300
E0E300
180000
180000
180000
07FF00
07FF00
07FF00
07FF00
ENDCHAR
STARTCHAR 0041
ENCODING 65
SWIDTH 413 0
DWIDTH 24 0
BBX 19 33 0 0
BITMAP
07FC00
07FC00
07FC00
07FC00
180300
180300
180300
180300
E000E0
E000E0
E000E0
E000E0
E000E0
E000E0
E000E0
E000E0
E000E0
E000E0
FFFFE0
FFFFE0
FFFFE0
FFFFE0
E000E0
E000E0
E000E0
E000E0
E000E0
E000E0
E000E0
E000E0
E000E0
E000E0
E000E0
ENDCHAR
STARTCHAR 0042
ENCODING 66
SWIDTH 413 0
DWIDTH 24 0
BBX 19 33 0 0
BITMAP
FFFF00
FFFF00
FFFF00
FFFF00
E000E0
E000E0
E000E0
E000E0
E000E0
E000E0
E000E0
E000E0
E000E0
E000E0
E000E0
FFFF00
FFFF00
FFFF00
FFFFE0
E000E0
E000E0
E000E0
E000E0
E000E0
E000E0
E000E0
E000E0
E000E0
E000E0
FFFF00
FFFF00
FFFF00
FFFF00
ENDCHAR
STARTCHAR 0043
ENCODING 67
SWIDTH 413 0
DWIDTH 24 0
BBX 19 33 0 0
BITMAP
1FFF00
1FFF00
1FFF00
1FFF00
E000E0
E000E0
E000E0
E000E0
E000E0
E000E0
E000E0
E00000
E00000
E00000
E00000
E00000
E00000
E00000
E00000
E00000
E00000
E00000
E000E0
E000E0
E000E0
E000E0
E000E0
E000E0
E000E0
1FFF00
1FFF00
1FFF00
1FFF00
ENDCHAR
STARTCHAR 0044
ENCODING 68
SWIDTH 413 0
DWIDTH 24 0
BBX 19 33 0 0
BITMAP
FFFC00
FFFC00
FFFC00
FFFC00
E00300
E00300
E00300
E00300
E000E0
E000E0
E000E0
E000E0
E000E0
E000E0
E000E0
E000E0
E000E0
E000E0
E000E0
E000E0
E000E0
E000E0
E000E0
E000E0
E000E0
E000E0
E00300
E00300
E00300
FFFC00
FFFC00
FFFC00
FFFC00
ENDCHAR
STARTCHAR 0045
ENCODING 69
SWIDTH 413 0
DWIDTH 24 0
BBX 19 33 0 0
BITMAP
FFFFE0
FFFFE0
FFFFE0
FFFFE0
E00000
E00000
E00000
E00000
E00000
E00000
E00000
E00000
E00000
E00000
E00000
FFFF00
FFFF00
FFFF00
FFFF00
E00000
E00000
E00000
E00000
E00000
E00000
E00000
E00000
E00000
E00000
FFFFE0
FFFFE0
FFFFE0
FFFFE0
ENDCHAR
STARTCHAR 0046
ENCODING 70
SWIDTH 413 0
DWIDTH 24 0
BBX 19 33 0 0
BITMAP
FFFFE0
FFFFE0
FFFFE0
FFFFE0
E00000
E00000
E00000
E00000
E00000
E00000
E00000
E00000
E00000
E00000
E00000
FFFF00
FFFF00
FFFF00
FFFF00
E00000
E00000
E00000
E00000
E00000
E00000
E00000
E00000
E00000
E00000
E00000
E00000
E00000
E00000
ENDCHAR
STARTCHAR 0047
ENCODING 71
SWIDTH 413 0
DWIDTH 24 0
BBX 19 33 0 0
BITMAP
1FFF00
1FFF00
1FFF00
1FFF00
E000E0
E000E0
E000E0
E000E0
E000E0
E000E0
E000E0
E00000
E00000
E00000
E00000
E00000
E00000
E00000
E01FE0
E01FE0
E01FE0
E01FE0
E000E0
E000E0
E000E0
E000E0
E000E0
E000E0
E000E0
1FFFE0
1FFFE0
1FFFE0
1FFFE0
ENDCHAR
STARTCHAR 0048
ENCODING 72
SWIDTH 413 0
DWIDTH 24 0
BBX 19 33 0 0
BITMAP
E000E0
E000E0
E000E0
E000E0
E000E0
E000E0
E000E0
E000E0
E000E0
E000E0
E000E0
E000E0
E000E0
E000E0
E000E0
FFFFE0
FFFFE0
FFFFE0
FFFFE0
E000E0
E000E0
E000E0
E000E0
E000E0
E000E0
E000E0
E000E0
E000E0
E000E0
E000E0
E000E0
E000E0
E000E0
ENDCHAR
STARTCHAR 0049
ENCODING 73
SWIDTH 413 0
DWIDTH 24 0
BBX 13 33 3 0
BITMAP
FFF8
FFF8
FFF8
FFF8
0700
0700
0700
0700
0700
0700
0700
0700
0700
0700
0700
0700
0700
0700
0700
0700
0700
0700
0700
0700
0700
0700
0700
0700
0700
FFF8
FFF8
FFF8
FFF8
ENDCHAR
STARTCHAR 004A
ENCODING 74
SWIDTH 413 0
DWIDTH 24 0
BBX 16 33 0 0
BITMAP
07FF
07FF
07FF
07FF
0003
0003
0003
0003
0003
0003
0003
0003
0003
0003
0003
0003
0003
0003
0003
0003
0003
0003
E003
E003
E003
E003
E003
E003
E003
1FFC
1FFC
1FFC
1FFC
ENDCHAR
STARTCHAR 004B
ENCODING 75
SWIDTH 413 0
DWIDTH 24 0
BBX 19 33 0 0
BITMAP
E00300
E00300
E00300
E00300
E01C00
E01C00
E01C00
E01C00
E0E000
E0E000
E0E000
E70000
E70000
E70000
E70000
FF0000
FF0000
FF0000
FFE000
E0E000
E0E000
E0E000
E01C00
E01C00
E01C00
E01C00
E00300
E00300
E00300
E000E0
E000E0
E000E0
E000E0
ENDCHAR
STARTCHAR 004C
ENCODING 76
SWIDTH 413 0
DWIDTH 24 0
BBX 19 33 0 0
BITMAP
E00000
E00000
E00000
E00000
E00000
E00000
E00000
E00000
E00000
E00000
E00000
E00000
E00000
E00000
E00000
E00000
E00000
E00000
E00000
E00000
E00000
E00000
E00000
E00000
E00000
E00000
E00000
E00000
E00000
FFFFE0
FFFFE0
FFFFE0
FFFFE0
ENDCHAR
STARTCHAR 004D
ENCODING 77
SWIDTH 413 0
DWIDTH 24 0
BBX 19 33 0 0
BITMAP
E000E0
E000E0
E000E0
E000E0
F803E0
F803E0
F803E0
F803E0
E71CE0
E71CE0
E71CE0
E0E0E0
E0E0E0
E0E0E0
E0E0E0
E000E0
E000E0
E000E0
E000E0
E000E0
E000E0
E000E0
E000E0
E000E0
E000E0
E000E0
E000E0
E000E0
E000E0
E000E0
E000E0
E000E0
E000E0
ENDCHAR
STARTCHAR 004E
ENCODING 78
SWIDTH 413 0
DWIDTH 24 0
BBX 19 33 0 0
BITMAP
E000E0
E000E0
E000E0
E000E0
E000E0
E000E0
E000E0
E000E0
F800E0
F800E0
F800E0
E700E0
E700E0
E700E0
E700E0
E0E0E0
E0E0E0
E0E0E0
E0FCE0
E01CE0
E01CE0
E01CE0
E003E0
E003E0
E003E0
E003E0
E000E0
E000E0
E000E0
E000E0
E000E0
E000E0
E000E0
ENDCHAR
STARTCHAR 004F
ENCODING 79
SWIDTH 413 0
DWIDTH 24 0
BBX 19 33 0 0
BITMAP
1FFF00
1FFF00
1FFF00
1FFF00
E000E0
E000E0
E000E0
E000E0
E000E0
E000E0
E000E0
E000E0
E000E0
E000E0
E000E0
E000E0
E000E0
E000E0
E000E0
E000E0
E000E0
E000E0
E000E0
E000E0
E000E0
E000E0
E000E0
E000E0
E000E0
1FFF00
1FFF00
1FFF00
1FFF00
ENDCHAR
STARTCHAR 0050
ENCODING 80
SWIDTH 413 0
DWIDTH 24 0
BBX 19 33 0 0
BITMAP
FFFF00
FFFF00
FFFF00
FFFF00
E000E0
E000E0
E000E0
E000E0
E000E0
E000E0
E000E0
E000E0
E000E0
E000E0
E000E0
FFFF00
FFFF00
FFFF00
FFFF00
E00000
E00000
E00000
E00000
E00000
E00000
E00000
E00000
E00000
E00000
E00000
E00000
E00000
E00000
ENDCHAR
STARTCHAR 0051
ENCODING 81
SWIDTH 413 0
DWIDTH 24 0
BBX 19 33 0 0
BITMAP
1FFF00
1FFF00
1FFF00
1FFF00
E000E0
E000E0
E000E0
E000E0
E000E0
E000E0
E000E0
E000E0
E000E0
E000E0
E000E0
E000E0
E000E0
E000E0
E0E0E0
E0E0E0
E0E0E0
E0E0E0
E01CE0
E01CE0
E01CE0
E01CE0
E00300
E00300
E00300
1FFCE0
1FFCE0
1FFCE0
1FFCE0
ENDCHAR
STARTCHAR 0052
ENCODING 82
SWIDTH 413 0
DWIDTH 24 0
BBX 19 33 0 0
BITMAP
FFFF00
FFFF00
FFFF00
FFFF00
E000E0
E000E0
E000E0
E000E0
E000E0
E000E0
E000E0
E000E0
E000E0
E000E0
E000E0
FFFF00
FFFF00
FFFF00
FFFF00
E0E000
E0E000
E0E000
E01C00
E01C00
E01C00
E01C00
E00300
E00300
E00300
E000E0
E000E0
E000E0
E000E0
ENDCHAR
STARTCHAR 0053
ENCODING 83
SWIDTH 413 0
DWIDTH 24 0
BBX 19 33 0 0
BITMAP
1FFF00
1FFF00
1FFF00
1FFF00
E00000
E00000
E00000
E00000
E00000
E00000
E00000
E00000
E00000
E00000
E00000
1FFF00
1FFF00
1FFF00
1FFFE0
0000E0
0000E0
0000E0
0000E0
0000E0
0000E0
0000E0
0000E0
0000E0
0000E0
FFFF00
FFFF00
FFFF00
FFFF00
ENDCHAR
STARTCHAR 0054
ENCODING 84
SWIDTH 413 0
DWIDTH 24 0
BBX 19 33 0 0
BITMAP
FFFFE0
FFFFE0
FFFFE0
FFFFE0
00E000
00E000
00E000
00E000
00E000
00E000
00E000
00E000
00E000
00E000
00E000
00E000
00E000
00E000
00E000
00E000
00E000
00E000
00E000
00E000
00E000
00E000
00E000
00E000
00E000
00E000
00E000
00E000
00E000
ENDCHAR
STARTCHAR 0055
ENCODING 85
SWIDTH 413 0
DWIDTH 24 0
BBX 19 33 0 0
BITMAP
E000E0
E000E0
E000E0
E000E0
E000E0
E000E0
E000E0
E000E0
E000E0
E000E0
E000E0
E000E0
E000E0
E000E0
E000E0
E000E0
E000E0
E000E0
E000E0
E000E0
E000E0
E000E0
E000E0
E000E0
E000E0
E000E0
E000E0
E000E0
E000E0
1FFF00
1FFF00
1FFF00
1FFF00
ENDCHAR
STARTCHAR 0056
ENCODING 86
SWIDTH 413 0
DWIDTH 24 0
BBX 19 33 0 0
BITMAP
E000E0
E000E0
E000E0
E000E0
E000E0
E000E0
E000E0
E000E0
E000E0
E000E0
E000E0
180300
180300
180300
180300
180300
180300
180300
1F1F00
071C00
071C00
071C00
071C00
071C00
071C00
071C00
00E000
00E000
00E000
00E000
00E000
00E000
00E000
ENDCHAR
STARTCHAR 0057
ENCODING 87
SWIDTH 413 0
DWIDTH 24 0
BBX 19 33 0 0
BITMAP
E000E0
E000E0
E000E0
E000E0
E000E0
E000E0
E000E0
E000E0
E000E0
E000E0
E000E0
E0E0E0
E0E0E0
E0E0E0
E0E0E0
E0E0E0
E0E0E0
E0E0E0
E7FCE0
E71CE0
E71CE0
E71CE0
E71CE0
E71CE0
E71CE0
E71CE0
180300
180300
180300
180300
180300
180300
180300
ENDCHAR
STARTCHAR 0058
ENCODING 88
SWIDTH 413 0
DWIDTH 24 0
BBX 19 33 0 0
BITMAP
E000E0
E000E0
E000E0
E000E0
E000E0
E000E0
E000E0
E000E0
180300
180300
180300
071C00
071C00
071C00
071C00
00E000
00E000
00E000
07FC00
071C00
071C00
071C00
180300
180300
180300
180300
E000E0
E000E0
E000E0
E000E0
E000E0
E000E0
E000E0
ENDCHAR
STARTCHAR 0059
ENCODING 89
SWIDTH 413 0
DWIDTH 24 0
BBX 19 33 0 0
BITMAP
E000E0
E000E0
E000E0
E000E0
E000E0
E000E0
E000E0
E000E0
E000E0
E000E0
E000E0
180300
180300
180300
180300
071C00
071C00
071C00
07FC00
00E000
00E000
00E000
00E000
00E000
00E000
00E000
00E000
00E000
00E000
00E000
00E000
00E000
00E000
ENDCHAR
STARTCHAR 005A
ENCODING 90
SWIDTH 413 0
DWIDTH 24 0
BBX 19 33 0 0
BITMAP
FFFFE0
FFFFE0
FFFFE0
FFFFE0
0000E0
0000E0
0000E0
0000E0
000300
000300
000300
001C00
001C00
001C00
001C00
00E000
00E000
00E000
07E000
070000
070000
070000
180000
180000
180000
180000
E00000
E00000
E00000
FFFFE0
FFFFE0
FFFFE0
FFFFE0
ENDCHAR
STARTCHAR 005B
ENCODING 91
SWIDTH 413 0
DWIDTH 24 0
BBX 11 33 5 0
BITMAP
FFE0
FFE0
FFE0
FFE0
E000
E000
E000
E000
E000
E000
E000
E000
E000
E000
E000
E000
E000
E000
E000
E000
E000
E000
E000
E000
E000
E000
E000
E000
E000
FFE0
FFE0
FFE0
FFE0
ENDCHAR
STARTCHAR 005C
ENCODING 92
SWIDTH 413 0
DWIDTH 24 0
BBX 19 25 0 4
BITMAP
E00000
E00000
E00000
E00000
180000
180000
180000
070000
070000
070000
070000
00E000
00E000
00E000
00FC00
001C00
001C00
001C00
000300
000300
000300
000300
0000E0
0000E0
0000E0
ENDCHAR
STARTCHAR 005D
ENCODING 93
SWIDTH 413 0
DWIDTH 24 0
BBX 11 33 5 0
BITMAP
FFE0
FFE0
FFE0
FFE0
0060
0060
0060
0060
0060
0060
0060
0060
0060
0060
0060
0060
0060
0060
0060
0060
0060
0060
0060
0060
0060
0060
0060
0060
0060
FFE0
FFE0
FFE0
FFE0
ENDCHAR
STARTCHAR 005E
ENCODING 94
SWIDTH 413 0
DWIDTH 24 0
BBX 13 11 3 25
BITMAP
0700
0700
0700
38E0
38E0
38E0
38E0
C018
C018
C018
C018
ENDCHAR
STARTCHAR 005F
ENCODING 95
SWIDTH 413 0
DWIDTH 24 0
BBX 22 3 0 -7
BITMAP
FFFFFC
FFFFFC
FFFFFC
ENDCHAR
STARTCHAR 0060
ENCODING 96
SWIDTH 413 0
DWIDTH 24 0
BBX 9 11 5 25
BITMAP
E000
E000
E000
1C00
1C00
1C00
1C00
0380
0380
0380
0380
ENDCHAR
STARTCHAR 0061
ENCODING 97
SWIDTH 413 0
DWIDTH 24 0
BBX 19 22 0 0
BITMAP
1FFC00
1FFC00
1FFC00
1FFC00
000300
000300
000300
1FFF00
1FFF00
1FFF00
1FFF00
E00300
E00300
E00300
E00300
E00300
E00300
E00300
1FFCE0
1FFCE0
1FFCE0
1FFCE0
ENDCHAR
STARTCHAR 0062
ENCODING 98
SWIDTH 413 0
DWIDTH 24 0
BBX 19 33 0 0
BITMAP
E00000
E00000
E00000
E00000
E00000
E00000
E00000
E00000
E00000
E00000
E00000
FFFF00
FFFF00
FFFF00
FFFF00
E000E0
E000E0
E000E0
E000E0
E000E0
E000E0
E000E0
E000E0
E000E0
E000E0
E000E0
E000E0
E000E0
E000E0
FFFF00
FFFF00
FFFF00
FFFF00
ENDCHAR
STARTCHAR 0063
ENCODING 99
SWIDTH 413 0
DWIDTH 24 0
BBX 19 22 0 0
BITMAP
1FFF00
1FFF00
1FFF00
1FFF00
E000E0
E000E0
E000E0
E000E0
E00000
E00000
E00000
E00000
E00000
E00000
E00000
E000E0
E000E0
E000E0
1FFF00
1FFF00
1FFF00
1FFF00
ENDCHAR
STARTCHAR 0064
ENCODING 100
SWIDTH 413 0
DWIDTH 24 0
BBX 19 33 0 0
BITMAP
0000E0
0000E0
0000E0
0000E0
0000E0
0000E0
0000E0
0000E0
0000E0
0000E0
0000E0
1FFFE0
1FFFE0
1FFFE0
1FFFE0
E000E0
E000E0
E000E0
E000E0
E000E0
E000E0
E000E0
E000E0
E000E0
E000E0
E000E0
E000E0
E000E0
E000E0
1FFFE0
1FFFE0
1FFFE0
1FFFE0
ENDCHAR
STARTCHAR 0065
ENCODING 101
SWIDTH 413 0
DWIDTH 24 0
BBX 19 22 0 0
BITMAP
1FFF00
1FFF00
1FFF00
1FFF00
E000E0
E000E0
E000E0
E000E0
E000E0
E000E0
E000E0
FFFF00
FFFF00
FFFF00
FFFF00
E00000
E00000
E00000
1FFF00
1FFF00
1FFF00
1FFF00
ENDCHAR
STARTCHAR 0066
ENCODING 102
SWIDTH 413 0
DWIDTH 24 0
BBX 19 33 0 0
BITMAP
00FFE0
00FFE0
00FFE0
00FFE0
070000
070000
070000
070000
070000
070000
070000
FFFF00
FFFF00
FFFF00
FFFF00
070000
070000
070000
070000
070000
070000
070000
070000
070000
070000
070000
070000
070000
070000
070000
070000
070000
070000
ENDCHAR
STARTCHAR 0067
ENCODING 103
SWIDTH 413 0
DWIDTH 24 0
BBX 19 29 0 -7
BITMAP
1FFFE0
1FFFE0
1FFFE0
1FFFE0
E000E0
E000E0
E000E0
E000E0
E000E0
E000E0
E000E0
E000E0
E000E0
E000E0
E000E0
E000E0
E000E0
E000E0
1FFFE0
1FFFE0
1FFFE0
1FFFE0
0000E0
0000E0
0000E0
0000E0
1FFF00
1FFF00
1FFF00
ENDCHAR
STARTCHAR 0068
ENCODING 104
SWIDTH 413 0
DWIDTH 24 0
BBX 19 33 0 0
BITMAP
E00000
E00000
E00000
E00000
E00000
E00000
E00000
E00000
E00000
E00000
E00000
FFFF00
FFFF00
FFFF00
FFFF00
E000E0
E000E0
E000E0
E000E0
E000E0
E000E0
E000E0
E000E0
E000E0
E000E0
E000E0
E000E0
E000E0
E000E0
E000E0
E000E0
E000E0
E000E0
ENDCHAR
STARTCHAR 0069
ENCODING 105
SWIDTH 413 0
DWIDTH 24 0
BBX 13 33 3 0
BITMAP
0700
0700
0700
0700
0700
0700
0700
0700
0000
0000
0000
FF00
FF00
FF00
FF00
0700
0700
0700
0700
0700
0700
0700
0700
0700
0700
0700
0700
0700
0700
FFF8
FFF8
FFF8
FFF8
ENDCHAR
STARTCHAR 006A
ENCODING 106
SWIDTH 413 0
DWIDTH 24 0
BBX 14 40 0 -7
BITMAP
001C
001C
001C
001C
001C
001C
001C
001C
0000
0000
0000
1FFC
1FFC
1FFC
1FFC
001C
001C
001C
001C
001C
001C
001C
001C
001C
001C
001C
001C
001C
001C
001C
001C
001C
001C
E01C
E01C
E01C
E01C
1FE0
1FE0
1FE0
ENDCHAR
STARTCHAR 006B
ENCODING 107
SWIDTH 413 0
DWIDTH 24 0
BBX 19 33 0 0
BITMAP
E00000
E00000
E00000
E00000
E00000
E00000
E00000
E00000
E00000
E00000
E00000
E00300
E00300
E00300
E00300
E01C00
E01C00
E01C00
E7FC00
E7E000
E7E000
E7E000
F81C00
F81C00
F81C00
F81C00
E00300
E00300
E00300
E000E0
E000E0
E000E0
E000E0
ENDCHAR
STARTCHAR 006C
ENCODING 108
SWIDTH 413 0
DWIDTH 24 0
BBX 13 33 3 0
BITMAP
FF00
FF00
FF00
FF00
0700
0700
0700
0700
0700
0700
0700
0700
0700
0700
0700
0700
0700
0700
0700
0700
0700
0700
0700
0700
0700
0700
0700
0700
0700
FFF8
FFF8
FFF8
FFF8
ENDCHAR
STARTCHAR 006D
ENCODING 109
SWIDTH 413 0
DWIDTH 24 0
BBX 19 22 0 0
BITMAP
FF1F00
FF1F00
FF1F00
FF1F00
E0E0E0
E0E0E0
E0E0E0
E0E0E0
E0E0E0
E0E0E0
E0E0E0
E0E0E0
E0E0E0
E0E0E0
E0E0E0
E0E0E0
E0E0E0
E0E0E0
E0E0E0
E0E0E0
E0E0E0
E0E0E0
ENDCHAR
STARTCHAR 006E
ENCODING 110
SWIDTH 413 0
DWIDTH 24 0
BBX 19 22 0 0
BITMAP
FFFF00
FFFF00
FFFF00
FFFF00
E000E0
E000E0
E000E0
E000E0
E000E0
E000E0
E000E0
E000E0
E000E0
E000E0
E000E0
E000E0
E000E0
E000E0
E000E0
E000E0
E000E0
E000E0
ENDCHAR
STARTCHAR 006F
ENCODING 111
SWIDTH 413 0
DWIDTH 24 0
BBX 19 22 0 0
BITMAP
1FFF00
1FFF00
1FFF00
1FFF00
E000E0
E000E0
E000E0
E000E0
E000E0
E000E0
E000E0
E000E0
E000E0
E000E0
E000E0
E000E0
E000E0
E000E0
1FFF00
1FFF00
1FFF00
1FFF00
ENDCHAR
STARTCHAR 0070
ENCODING 112
SWIDTH 413 0
DWIDTH 24 0
BBX 19 29 0 -7
BITMAP
FFFF00
FFFF00
FFFF00
FFFF00
E000E0
E000E0
E000E0
E000E0
E000E0
E000E0
E000E0
E000E0
E000E0
E000E0
E000E0
E000E0
E000E0
E000E0
FFFF00
FFFF00
FFFF00
FFFF00
E00000
E00000
E00000
E00000
E00000
E00000
E00000
ENDCHAR
STARTCHAR 0071
ENCODING 113
SWIDTH 413 0
DWIDTH 24 0
BBX 19 29 0 -7
BITMAP
1FFFE0
1FFFE0
1FFFE0
1FFFE0
E000E0
E000E0
E000E0
E000E0
E000E0
E000E0
E000E0
E000E0
E000E0
E000E0
E000E0
E000E0
E000E0
E000E0
1FFFE0
1FFFE0
1FFFE0
1FFFE0
0000E0
0000E0
0000E0
0000E0
0000E0
0000E0
0000E0
ENDCHAR
STARTCHAR 0072
ENCODING 114
SWIDTH 413 0
DWIDTH 24 0
BBX 19 22 0 0
BITMAP
F8FF00
F8FF00
F8FF00
F8FF00
1F00E0
1F00E0
1F00E0
1F00E0
180000
180000
180000
180000
180000
180000
180000
180000
180000
180000
180000
180000
180000
180000
ENDCHAR
STARTCHAR 0073
ENCODING 115
SWIDTH 413 0
DWIDTH 24 0
BBX 19 22 0 0
BITMAP
1FFF00
1FFF00
1FFF00
1FFF00
E00000
E00000
E00000
FFFF00
1FFF00
1FFF00
1FFF00
0000E0
0000E0
0000E0
0000E0
0000E0
0000E0
0000E0
FFFF00
FFFF00
FFFF00
FFFF00
ENDCHAR
STARTCHAR 0074
ENCODING 116
SWIDTH 413 0
DWIDTH 24 0
BBX 19 29 0 0
BITMAP
070000
070000
070000
070000
070000
070000
070000
FFFF00
FFFF00
FFFF00
FFFF00
070000
070000
070000
070000
070000
070000
070000
070000
070000
070000
070000
070000
070000
070000
00FFE0
00FFE0
00FFE0
00FFE0
ENDCHAR
STARTCHAR 0075
ENCODING 117
SWIDTH 413 0
DWIDTH 24 0
BBX 19 22 0 0
BITMAP
E000E0
E000E0
E000E0
E000E0
E000E0
E000E0
E000E0
E000E0
E000E0
E000E0
E000E0
E000E0
E000E0
E000E0
E000E0
E000E0
E000E0
E000E0
1FFFE0
1FFFE0
1FFFE0
1FFFE0
ENDCHAR
STARTCHAR 0076
ENCODING 118
SWIDTH 413 0
DWIDTH 24 0
BBX 19 22 0 0
BITMAP
E000E0
E000E0
E000E0
E000E0
E000E0
E000E0
E000E0
E000E0
E000E0
E000E0
E000E0
180300
180300
180300
180300
071C00
071C00
071C00
00E000
00E000
00E000
00E000
ENDCHAR
STARTCHAR 0077
ENCODING 119
SWIDTH 413 0
DWIDTH 24 0
BBX 19 22 0 0
BITMAP
E000E0
E000E0
E000E0
E000E0
E000E0
E000E0
E000E0
E0E0E0
E0E0E0
E0E0E0
E0E0E0
E0E0E0
E0E0E0
E0E0E0
E0E0E0
E71CE0
E71CE0
E71CE0
180300
180300
180300
180300
ENDCHAR
STARTCHAR 0078
ENCODING 120
SWIDTH 413 0
DWIDTH 24 0
BBX 16 22 0 0
BITMAP
E003
E003
E003
E003
181C
181C
181C
1FFC
07E0
07E0
07E0
07E0
07E0
07E0
07E0
181C
181C
181C
E003
E003
E003
E003
ENDCHAR
STARTCHAR 0079
ENCODING 121
SWIDTH 413 0
DWIDTH 24 0
BBX 19 29 0 -7
BITMAP
E000E0
E000E0
E000E0
E000E0
E000E0
E000E0
E000E0
E000E0
E000E0
E000E0
E000E0
E000E0
E000E0
E000E0
E000E0
1803E0
1803E0
1803E0
07FCE0
07FCE0
07FCE0
07FCE0
0000E0
0000E0
0000E0
0000E0
1FFF00
1FFF00
1FFF00
ENDCHAR
STARTCHAR 007A
ENCODING 122
SWIDTH 413 0
DWIDTH 24 0
BBX 16 22 0 0
BITMAP
FFFF
FFFF
FFFF
FFFF
001C
001C
001C
00FC
00E0
00E0
00E0
0700
0700
0700
0700
1800
1800
1800
FFFF
FFFF
FFFF
FFFF
ENDCHAR
STARTCHAR 007B
ENCODING 123
SWIDTH 413 0
DWIDTH 24 0
BBX 13 33 3 0
BITMAP
00F8
00F8
00F8
00F8
0700
0700
0700
0700
0700
0700
0700
0700
0700
0700
0700
F800
F800
F800
FF00
0700
0700
0700
0700
0700
0700
0700
0700
0700
0700
00F8
00F8
00F8
00F8
ENDCHAR
STARTCHAR 007C
ENCODING 124
SWIDTH 413 0
DWIDTH 24 0
BBX 3 33 8 0
BITMAP
E0
E0
E0
E0
E0
E0
E0
E0
E0
E0
E0
E0
E0
E0
E0
00
00
00
E0
E0
E0
E0
E0
E0
E0
E0
E0
E0
E0
E0
E0
E0
E0
ENDCHAR
STARTCHAR 007D
ENCODING 125
SWIDTH 413 0
DWIDTH 24 0
BBX 13 33 3 0
BITMAP
F800
F800
F800
F800
0700
0700
0700
0700
0700
0700
0700
0700
0700
0700
0700
00F8
00F8
00F8
07F8
0700
0700
0700
0700
0700
0700
0700
0700
0700
0700
F800
F800
F800
F800
ENDCHAR
STARTCHAR 007E
ENCODING 126
SWIDTH 413 0
DWIDTH 24 0
BBX 16 7 3 29
BITMAP
3F07
3F07
3F07
C0F8
C0F8
C0F8
C0F8
ENDCHAR
STARTCHAR 007F
ENCODING 127
SWIDTH 413 0
DWIDTH 24 0
BBX 19 22 0 0
BITMAP
00E000
00E000
00E000
00E000
071C00
071C00
071C00
1F1F00
180300
180300
180300
E000E0
E000E0
E000E0
E000E0
E000E0
E000E0
E000E0
FFFFE0
FFFFE0
FFFFE0
FFFFE0
ENDCHAR
STARTCHAR 00A0
ENCODING 160
SWIDTH 413 0
DWIDTH 24 0
BBX 0 0 0 0
BITMAP
ENDCHAR
STARTCHAR 00A1
ENCODING 161
SWIDTH 413 0
DWIDTH 24 0
BBX 3 29 8 -7
BITMAP
E0
E0
E0
E0
E0
E0
E0
E0
00
00
00
E0
E0
E0
E0
E0
E0
E0
E0
E0
E0
E0
E0
E0
E0
E0
E0
E0
E0
ENDCHAR
STARTCHAR 00A2
ENCODING 162
SWIDTH 413 0
DWIDTH 24 0
BBX 19 29 0 -4
BITMAP
00E000
00E000
00E000
1FFF00
1FFF00
1FFF00
1FFF00
E0E0E0
E0E0E0
E0E0E0
E0E0E0
E0E000
E0E000
E0E000
E0E000
E0E000
E0E000
E0E000
E0E0E0
E0E0E0
E0E0E0
1FFF00
1FFF00
1FFF00
1FFF00
00E000
00E000
00E000
00E000
ENDCHAR
STARTCHAR 00A3
ENCODING 163
SWIDTH 413 0
DWIDTH 24 0
BBX 19 33 0 0
BITMAP
07FF00
07FF00
07FF00
07FF00
180000
180000
180000
180000
180000
180000
180000
180000
180000
180000
180000
FFE000
FFE000
FFE000
FFE000
180000
180000
180000
180000
180000
180000
180000
1800E0
1800E0
1800E0
E7FF00
E7FF00
E7FF00
E7FF00
ENDCHAR
STARTCHAR 00A5
ENCODING 165
SWIDTH 413 0
DWIDTH 24 0
BBX 19 33 0 0
BITMAP
E000E0
E000E0
E000E0
E000E0
E000E0
E000E0
E000E0
E000E0
E000E0
E000E0
E000E0
180300
180300
180300
180300
071C00
071C00
071C00
FFFFE0
FFFFE0
FFFFE0
FFFFE0
00E000
00E000
00E000
00E000
FFFFE0
FFFFE0
FFFFE0
00E000
00E000
00E000
00E000
ENDCHAR
STARTCHAR 00A7
ENCODING 167
SWIDTH 413 0
DWIDTH 24 0
BBX 16 40 3 -4
BITMAP
07F8
07F8
07F8
3800
3800
3800
3800
0700
0700
0700
0700
38E0
38E0
38E0
C018
C018
C018
C018
C007
C007
C007
F807
3807
3807
3807
0718
0718
0718
0718
00E0
00E0
00E0
0018
0018
0018
0018
3FE0
3FE0
3FE0
3FE0
ENDCHAR
STARTCHAR 00AA
ENCODING 170
SWIDTH 413 0
DWIDTH 24 0
BBX 16 26 0 7
BITMAP
1FE0
1FE0
1FE0
1FE0
001C
001C
001C
001C
1FFC
1FFC
1FFC
E01C
E01C
E01C
E01C
1FE3
1FE3
1FE3
1FE3
0000
0000
0000
FFFF
FFFF
FFFF
FFFF
ENDCHAR
STARTCHAR 00AB
ENCODING 171
SWIDTH 413 0
DWIDTH 24 0
BBX 19 25 0 4
BITMAP
00E0E0
00E0E0
00E0E0
00E0E0
070300
070300
070300
181C00
181C00
181C00
181C00
E0E000
E0E000
E0E000
F8FC00
181C00
181C00
181C00
070300
070300
070300
070300
00E0E0
00E0E0
00E0E0
ENDCHAR
STARTCHAR 00AC
ENCODING 172
SWIDTH 413 0
DWIDTH 24 0
BBX 19 14 0 4
BITMAP
FFFFE0
FFFFE0
FFFFE0
FFFFE0
0000E0
0000E0
0000E0
0000E0
0000E0
0000E0
0000E0
0000E0
0000E0
0000E0
ENDCHAR
STARTCHAR 00B0
ENCODING 176
SWIDTH 413 0
DWIDTH 24 0
BBX 13 15 3 18
BITMAP
3FE0
3FE0
3FE0
3FE0
C018
C018
C018
C018
C018
C018
C018
3FE0
3FE0
3FE0
3FE0
ENDCHAR
STARTCHAR 00B1
ENCODING 177
SWIDTH 413 0
DWIDTH 24 0
BBX 19 33 0 0
BITMAP
00E000
00E000
00E000
00E000
00E000
00E000
00E000
00E000
00E000
00E000
00E000
FFFFE0
FFFFE0
FFFFE0
FFFFE0
00E000
00E000
00E000
00E000
00E000
00E000
00E000
00E000
00E000
00E000
00E000
000000
000000
000000
FFFFE0
FFFFE0
FFFFE0
FFFFE0
ENDCHAR
STARTCHAR 00B2
ENCODING 178
SWIDTH 413 0
DWIDTH 24 0
BBX 14 22 0 11
BITMAP
1FE0
1FE0
1FE0
1FE0
E01C
E01C
E01C
E01C
00E0
00E0
00E0
0700
0700
0700
0700
1800
1800
1800
FFFC
FFFC
FFFC
FFFC
ENDCHAR
STARTCHAR 00B5
ENCODING 181
SWIDTH 413 0
DWIDTH 24 0
BBX 19 29 0 -7
BITMAP
E00300
E00300
E00300
E00300
E00300
E00300
E00300
E00300
E00300
E00300
E00300
E00300
E00300
E00300
E00300
E00300
E00300
E00300
1FFCE0
1FFCE0
1FFCE0
1FFCE0
E00000
E00000
E00000
E00000
E00000
E00000
E00000
ENDCHAR
STARTCHAR 00B6
ENCODING 182
SWIDTH 413 0
DWIDTH 24 0
BBX 19 33 0 0
BITMAP
1FFFE0
1FFFE0
1FFFE0
1FFFE0
E0E300
E0E300
E0E300
E0E300
E0E300
E0E300
E0E300
E0E300
E0E300
E0E300
E0E300
1FE300
1FE300
1FE300
1FE300
00E300
00E300
00E300
00E300
00E300
00E300
00E300
00E300
00E300
00E300
00E300
00E300
00E300
00E300
ENDCHAR
STARTCHAR 00B7
ENCODING 183
SWIDTH 413 0
DWIDTH 24 0
BBX 9 4 5 14
BITMAP
FF80
FF80
FF80
FF80
ENDCHAR
STARTCHAR 00BA
ENCODING 186
SWIDTH 413 0
DWIDTH 24 0
BBX 16 26 0 7
BITMAP
1FFC
1FFC
1FFC
1FFC
E003
E003
E003
E003
E003
E003
E003
E003
E003
E003
E003
1FFC
1FFC
1FFC
1FFC
0000
0000
0000
FFFF
FFFF
FFFF
FFFF
ENDCHAR
STARTCHAR 00BB
ENCODING 187
SWIDTH 413 0
DWIDTH 24 0
BBX 19 25 0 4
BITMAP
E0E000
E0E000
E0E000
E0E000
181C00
181C00
181C00
070300
070300
070300
070300
00E0E0
00E0E0
00E0E0
07E3E0
070300
070300
070300
181C00
181C00
181C00
181C00
E0E000
E0E000
E0E000
ENDCHAR
STARTCHAR 00BC
ENCODING 188
SWIDTH 413 0
DWIDTH 24 0
BBX 22 40 0 -4
BITMAP
180000
180000
180000
F80000
F80000
F80000
F80000
180000
180000
180000
180000
180300
180300
180300
181C00
181C00
181C00
181C00
00E000
00E000
00E000
07E3E0
0703E0
0703E0
0703E0
181CE0
181CE0
181CE0
181CE0
E0E0E0
E0E0E0
E0E0E0
07FFFC
07FFFC
07FFFC
07FFFC
0000E0
0000E0
0000E0
0000E0
ENDCHAR
STARTCHAR 00BD
ENCODING 189
SWIDTH 413 0
DWIDTH 24 0
BBX 22 40 0 -4
BITMAP
180000
180000
180000
F80000
F80000
F80000
F80000
180000
180000
180000
180000
180300
180300
180300
181C00
181C00
181C00
181C00
00E000
00E000
00E000
07E3E0
0703E0
0703E0
0703E0
181C1C
181C1C
181C1C
181C1C
E000E0
E000E0
E000E0
000300
000300
000300
000300
001FFC
001FFC
001FFC
001FFC
ENDCHAR
STARTCHAR 00BF
ENCODING 191
SWIDTH 413 0
DWIDTH 24 0
BBX 19 29 0 -7
BITMAP
00E000
00E000
00E000
00E000
00E000
00E000
00E000
00E000
000000
000000
000000
00E000
00E000
00E000
00E000
070000
070000
070000
180000
180000
180000
180000
E000E0
E000E0
E000E0
E000E0
1FFF00
1FFF00
1FFF00
ENDCHAR
STARTCHAR 00C4
ENCODING 196
SWIDTH 413 0
DWIDTH 24 0
BBX 19 40 0 0
BITMAP
180300
180300
180300
180300
000000
000000
000000
07FC00
07FC00
07FC00
07FC00
180300
180300
180300
180300
E000E0
E000E0
E000E0
E000E0
E000E0
E000E0
E000E0
E000E0
E000E0
E000E0
FFFFE0
FFFFE0
FFFFE0
FFFFE0
E000E0
E000E0
E000E0
E000E0
E000E0
E000E0
E000E0
E000E0
E000E0
E000E0
E000E0
ENDCHAR
STARTCHAR 00C5
ENCODING 197
SWIDTH 413 0
DWIDTH 24 0
BBX 19 40 0 0
BITMAP
07FC00
07FC00
07FC00
07FC00
180300
180300
180300
07FC00
07FC00
07FC00
07FC00
180300
180300
180300
180300
E000E0
E000E0
E000E0
E000E0
E000E0
E000E0
E000E0
E000E0
E000E0
E000E0
FFFFE0
FFFFE0
FFFFE0
FFFFE0
E000E0
E000E0
E000E0
E000E0
E000E0
E000E0
E000E0
E000E0
E000E0
E000E0
E000E0
ENDCHAR
STARTCHAR 00C6
ENCODING 198
SWIDTH 413 0
DWIDTH 24 0
BBX 19 33 0 0
BITMAP
07FFE0
07FFE0
07FFE0
07FFE0
181C00
181C00
181C00
181C00
E01C00
E01C00
E01C00
E01C00
E01C00
E01C00
E01C00
E01FE0
E01FE0
E01FE0
FFFFE0
FFFC00
FFFC00
FFFC00
E01C00
E01C00
E01C00
E01C00
E01C00
E01C00
E01C00
E01FE0
E01FE0
E01FE0
E01FE0
ENDCHAR
STARTCHAR 00C7
ENCODING 199
SWIDTH 413 0
DWIDTH 24 0
BBX 19 40 0 -7
BITMAP
1FFF00
1FFF00
1FFF00
1FFF00
E000E0
E000E0
E000E0
E000E0
E000E0
E000E0
E000E0
E00000
E00000
E00000
E00000
E00000
E00000
E00000
E00000
E00000
E00000
E00000
E000E0
E000E0
E000E0
E000E0
E000E0
E000E0
E000E0
1FFF00
1FFF00
1FFF00
1FFF00
00E000
00E000
00E000
00E000
07E000
07E000
07E000
ENDCHAR
STARTCHAR 00C9
ENCODING 201
SWIDTH 413 0
DWIDTH 24 0
BBX 19 44 0 0
BITMAP
000300
000300
000300
000300
001C00
001C00
001C00
001C00
000000
000000
000000
FFFFE0
FFFFE0
FFFFE0
FFFFE0
E00000
E00000
E00000
E00000
E00000
E00000
E00000
E00000
E00000
E00000
E00000
FFFF00
FFFF00
FFFF00
FFFF00
E00000
E00000
E00000
E00000
E00000
E00000
E00000
E00000
E00000
E00000
FFFFE0
FFFFE0
FFFFE0
FFFFE0
ENDCHAR
STARTCHAR 00D1
ENCODING 209
SWIDTH 413 0
DWIDTH 24 0
BBX 19 44 0 0
BITMAP
1FE0E0
1FE0E0
1FE0E0
1FE0E0
E01F00
E01F00
E01F00
E01F00
000000
000000
000000
E000E0
E000E0
E000E0
E000E0
E000E0
E000E0
E000E0
E000E0
F800E0
F800E0
F800E0
E700E0
E700E0
E700E0
E700E0
E0E0E0
E0E0E0
E0E0E0
E0FCE0
E01CE0
E01CE0
E01CE0
E003E0
E003E0
E003E0
E003E0
E000E0
E000E0
E000E0
E000E0
E000E0
E000E0
E000E0
ENDCHAR
STARTCHAR 00D6
ENCODING 214
SWIDTH 413 0
DWIDTH 24 0
BBX 19 40 0 0
BITMAP
180300
180300
180300
180300
000000
000000
000000
1FFF00
1FFF00
1FFF00
1FFF00
E000E0
E000E0
E000E0
E000E0
E000E0
E000E0
E000E0
E000E0
E000E0
E000E0
E000E0
E000E0
E000E0
E000E0
E000E0
E000E0
E000E0
E000E0
E000E0
E000E0
E000E0
E000E0
E000E0
E000E0
E000E0
1FFF00
1FFF00
1FFF00
1FFF00
ENDCHAR
STARTCHAR 00DC
ENCODING 220
SWIDTH 413 0
DWIDTH 24 0
BBX 19 40 0 0
BITMAP
180300
180300
180300
180300
000000
000000
000000
E000E0
E000E0
E000E0
E000E0
E000E0
E000E0
E000E0
E000E0
E000E0
E000E0
E000E0
E000E0
E000E0
E000E0
E000E0
E000E0
E000E0
E000E0
E000E0
E000E0
E000E0
E000E0
E000E0
E000E0
E000E0
E000E0
E000E0
E000E0
E000E0
1FFF00
1FFF00
1FFF00
1FFF00
ENDCHAR
STARTCHAR 00DF
ENCODING 223
SWIDTH 413 0
DWIDTH 24 0
BBX 16 33 0 0
BITMAP
1FE0
1FE0
1FE0
1FE0
E01C
E01C
E01C
E01C
E01C
E01C
E01C
E01C
E01C
E01C
E01C
E7E0
E7E0
E7E0
E7FC
E01C
E01C
E01C
E003
E003
E003
E003
E703
E703
E703
E0FC
E0FC
E0FC
E0FC
ENDCHAR
STARTCHAR 00E0
ENCODING 224
SWIDTH 413 0
DWIDTH 24 0
BBX 19 33 0 0
BITMAP
180000
180000
180000
180000
070000
070000
070000
070000
000000
000000
000000
1FFC00
1FFC00
1FFC00
1FFC00
000300
000300
000300
1FFF00
1FFF00
1FFF00
1FFF00
E00300
E00300
E00300
E00300
E00300
E00300
E00300
1FFCE0
1FFCE0
1FFCE0
1FFCE0
ENDCHAR
STARTCHAR 00E1
ENCODING 225
SWIDTH 413 0
DWIDTH 24 0
BBX 19 33 0 0
BITMAP
000300
000300
000300
000300
001C00
001C00
001C00
001C00
000000
000000
000000
1FFC00
1FFC00
1FFC00
1FFC00
000300
000300
000300
1FFF00
1FFF00
1FFF00
1FFF00
E00300
E00300
E00300
E00300
E00300
E00300
E00300
1FFCE0
1FFCE0
1FFCE0
1FFCE0
ENDCHAR
STARTCHAR 00E2
ENCODING 226
SWIDTH 413 0
DWIDTH 24 0
BBX 19 33 0 0
BITMAP
07E000
07E000
07E000
07E000
181C00
181C00
181C00
181C00
000000
000000
000000
1FFC00
1FFC00
1FFC00
1FFC00
000300
000300
000300
1FFF00
1FFF00
1FFF00
1FFF00
E00300
E00300
E00300
E00300
E00300
E00300
E00300
1FFCE0
1FFCE0
1FFCE0
1FFCE0
ENDCHAR
STARTCHAR 00E4
ENCODING 228
SWIDTH 413 0
DWIDTH 24 0
BBX 19 33 0 0
BITMAP
181C00
181C00
181C00
181C00
000000
000000
000000
000000
000000
000000
000000
1FFC00
1FFC00
1FFC00
1FFC00
000300
000300
000300
1FFF00
1FFF00
1FFF00
1FFF00
E00300
E00300
E00300
E00300
E00300
E00300
E00300
1FFCE0
1FFCE0
1FFCE0
1FFCE0
ENDCHAR
STARTCHAR 00E5
ENCODING 229
SWIDTH 413 0
DWIDTH 24 0
BBX 19 36 0 0
BITMAP
07E000
07E000
07E000
181C00
181C00
181C00
181C00
07E000
07E000
07E000
07E000
000000
000000
000000
1FFC00
1FFC00
1FFC00
1FFC00
000300
000300
000300
1FFF00
1FFF00
1FFF00
1FFF00
E00300
E00300
E00300
E00300
E00300
E00300
E00300
1FFCE0
1FFCE0
1FFCE0
1FFCE0
ENDCHAR
STARTCHAR 00E6
ENCODING 230
SWIDTH 413 0
DWIDTH 24 0
BBX 19 22 0 0
BITMAP
1F1F00
1F1F00
1F1F00
1F1F00
00E0E0
00E0E0
00E0E0
1FFFE0
1FFFE0
1FFFE0
1FFFE0
E0E000
E0E000
E0E000
E0E000
E0E000
E0E000
E0E000
1F1FE0
1F1FE0
1F1FE0
1F1FE0
ENDCHAR
STARTCHAR 00E7
ENCODING 231
SWIDTH 413 0
DWIDTH 24 0
BBX 19 29 0 -7
BITMAP
1FFF00
1FFF00
1FFF00
1FFF00
E000E0
E000E0
E000E0
E000E0
E00000
E00000
E00000
E00000
E00000
E00000
E00000
E000E0
E000E0
E000E0
1FFF00
1FFF00
1FFF00
1FFF00
00E000
00E000
00E000
00E000
07E000
07E000
07E000
ENDCHAR
STARTCHAR 00E8
ENCODING 232
SWIDTH 413 0
DWIDTH 24 0
BBX 19 33 0 0
BITMAP
180000
180000
180000
180000
070000
070000
070000
070000
000000
000000
000000
1FFF00
1FFF00
1FFF00
1FFF00
E000E0
E000E0
E000E0
E000E0
E000E0
E000E0
E000E0
FFFF00
FFFF00
FFFF00
FFFF00
E00000
E00000
E00000
1FFF00
1FFF00
1FFF00
1FFF00
ENDCHAR
STARTCHAR 00E9
ENCODING 233
SWIDTH 413 0
DWIDTH 24 0
BBX 19 33 0 0
BITMAP
000300
000300
000300
000300
001C00
001C00
001C00
001C00
000000
000000
000000
1FFF00
1FFF00
1FFF00
1FFF00
E000E0
E000E0
E000E0
E000E0
E000E0
E000E0
E000E0
FFFF00
FFFF00
FFFF00
FFFF00
E00000
E00000
E00000
1FFF00
1FFF00
1FFF00
1FFF00
ENDCHAR
STARTCHAR 00EA
ENCODING 234
SWIDTH 413 0
DWIDTH 24 0
BBX 19 33 0 0
BITMAP
07FC00
07FC00
07FC00
07FC00
180300
180300
180300
180300
000000
000000
000000
1FFF00
1FFF00
1FFF00
1FFF00
E000E0
E000E0
E000E0
E000E0
E000E0
E000E0
E000E0
FFFF00
FFFF00
FFFF00
FFFF00
E00000
E00000
E00000
1FFF00
1FFF00
1FFF00
1FFF00
ENDCHAR
STARTCHAR 00EB
ENCODING 235
SWIDTH 413 0
DWIDTH 24 0
BBX 19 33 0 0
BITMAP
180300
180300
180300
180300
000000
000000
000000
000000
000000
000000
000000
1FFF00
1FFF00
1FFF00
1FFF00
E000E0
E000E0
E000E0
E000E0
E000E0
E000E0
E000E0
FFFF00
FFFF00
FFFF00
FFFF00
E00000
E00000
E00000
1FFF00
1FFF00
1FFF00
1FFF00
ENDCHAR
STARTCHAR 00EC
ENCODING 236
SWIDTH 413 0
DWIDTH 24 0
BBX 13 33 3 0
BITMAP
C000
C000
C000
C000
3800
3800
3800
3800
0000
0000
0000
FF00
FF00
FF00
FF00
0700
0700
0700
0700
0700
0700
0700
0700
0700
0700
0700
0700
0700
0700
FFF8
FFF8
FFF8
FFF8
ENDCHAR
STARTCHAR 00ED
ENCODING 237
SWIDTH 413 0
DWIDTH 24 0
BBX 13 33 3 0
BITMAP
00E0
00E0
00E0
00E0
0700
0700
0700
0700
0000
0000
0000
FF00
FF00
FF00
FF00
0700
0700
0700
0700
0700
0700
0700
0700
0700
0700
0700
0700
0700
0700
FFF8
FFF8
FFF8
FFF8
ENDCHAR
STARTCHAR 00EE
ENCODING 238
SWIDTH 413 0
DWIDTH 24 0
BBX 13 33 3 0
BITMAP
3FE0
3FE0
3FE0
3FE0
C018
C018
C018
C018
0000
0000
0000
FF00
FF00
FF00
FF00
0700
0700
0700
0700
0700
0700
0700
0700
0700
0700
0700
0700
0700
0700
FFF8
FFF8
FFF8
FFF8
ENDCHAR
STARTCHAR 00EF
ENCODING 239
SWIDTH 413 0
DWIDTH 24 0
BBX 13 33 3 0
BITMAP
C018
C018
C018
C018
0000
0000
0000
0000
0000
0000
0000
FF00
FF00
FF00
FF00
0700
0700
0700
0700
0700
0700
0700
0700
0700
0700
0700
0700
0700
0700
FFF8
FFF8
FFF8
FFF8
ENDCHAR
STARTCHAR 00F1
ENCODING 241
SWIDTH 413 0
DWIDTH 24 0
BBX 19 33 0 0
BITMAP
07E0E0
07E0E0
07E0E0
07E0E0
181F00
181F00
181F00
181F00
000000
000000
000000
FFFF00
FFFF00
FFFF00
FFFF00
E000E0
E000E0
E000E0
E000E0
E000E0
E000E0
E000E0
E000E0
E000E0
E000E0
E000E0
E000E0
E000E0
E000E0
E000E0
E000E0
E000E0
E000E0
ENDCHAR
STARTCHAR 00F2
ENCODING 242
SWIDTH 413 0
DWIDTH 24 0
BBX 19 33 0 0
BITMAP
180000
180000
180000
180000
070000
070000
070000
070000
000000
000000
000000
1FFF00
1FFF00
1FFF00
1FFF00
E000E0
E000E0
E000E0
E000E0
E000E0
E000E0
E000E0
E000E0
E000E0
E000E0
E000E0
E000E0
E000E0
E000E0
1FFF00
1FFF00
1FFF00
1FFF00
ENDCHAR
STARTCHAR 00F3
ENCODING 243
SWIDTH 413 0
DWIDTH 24 0
BBX 19 33 0 0
BITMAP
000300
000300
000300
000300
001C00
001C00
001C00
001C00
000000
000000
000000
1FFF00
1FFF00
1FFF00
1FFF00
E000E0
E000E0
E000E0
E000E0
E000E0
E000E0
E000E0
E000E0
E000E0
E000E0
E000E0
E000E0
E000E0
E000E0
1FFF00
1FFF00
1FFF00
1FFF00
ENDCHAR
STARTCHAR 00F4
ENCODING 244
SWIDTH 413 0
DWIDTH 24 0
BBX 19 33 0 0
BITMAP
07FC00
07FC00
07FC00
07FC00
180300
180300
180300
180300
000000
000000
000000
1FFF00
1FFF00
1FFF00
1FFF00
E000E0
E000E0
E000E0
E000E0
E000E0
E000E0
E000E0
E000E0
E000E0
E000E0
E000E0
E000E0
E000E0
E000E0
1FFF00
1FFF00
1FFF00
1FFF00
ENDCHAR
STARTCHAR 00F6
ENCODING 246
SWIDTH 413 0
DWIDTH 24 0
BBX 19 33 0 0
BITMAP
180300
180300
180300
180300
000000
000000
000000
000000
000000
000000
000000
1FFF00
1FFF00
1FFF00
1FFF00
E000E0
E000E0
E000E0
E000E0
E000E0
E000E0
E000E0
E000E0
E000E0
E000E0
E000E0
E000E0
E000E0
E000E0
1FFF00
1FFF00
1FFF00
1FFF00
ENDCHAR
STARTCHAR 00F7
ENCODING 247
SWIDTH 413 0
DWIDTH 24 0
BBX 19 25 0 4
BITMAP
00E000
00E000
00E000
00E000
00E000
00E000
00E000
000000
000000
000000
000000
FFFFE0
FFFFE0
FFFFE0
FFFFE0
000000
000000
000000
00E000
00E000
00E000
00E000
00E000
00E000
00E000
ENDCHAR
STARTCHAR 00F9
ENCODING 249
SWIDTH 413 0
DWIDTH 24 0
BBX 19 33 0 0
BITMAP
180000
180000
180000
180000
070000
070000
070000
070000
000000
000000
000000
E000E0
E000E0
E000E0
E000E0
E000E0
E000E0
E000E0
E000E0
E000E0
E000E0
E000E0
E000E0
E000E0
E000E0
E000E0
E000E0
E000E0
E000E0
1FFFE0
1FFFE0
1FFFE0
1FFFE0
ENDCHAR
STARTCHAR 00FA
ENCODING 250
SWIDTH 413 0
DWIDTH 24 0
BBX 19 33 0 0
BITMAP
000300
000300
000300
000300
001C00
001C00
001C00
001C00
000000
000000
000000
E000E0
E000E0
E000E0
E000E0
E000E0
E000E0
E000E0
E000E0
E000E0
E000E0
E000E0
E000E0
E000E0
E000E0
E000E0
E000E0
E000E0
E000E0
1FFFE0
1FFFE0
1FFFE0
1FFFE0
ENDCHAR
STARTCHAR 00FB
ENCODING 251
SWIDTH 413 0
DWIDTH 24 0
BBX 19 33 0 0
BITMAP
07FC00
07FC00
07FC00
07FC00
180300
180300
180300
180300
000000
000000
000000
E000E0
E000E0
E000E0
E000E0
E000E0
E000E0
E000E0
E000E0
E000E0
E000E0
E000E0
E000E0
E000E0
E000E0
E000E0
E000E0
E000E0
E000E0
1FFFE0
1FFFE0
1FFFE0
1FFFE0
ENDCHAR
STARTCHAR 00FC
ENCODING 252
SWIDTH 413 0
DWIDTH 24 0
BBX 19 33 0 0
BITMAP
180300
180300
180300
180300
000000
000000
000000
000000
000000
000000
000000
E000E0
E000E0
E000E0
E000E0
E000E0
E000E0
E000E0
E000E0
E000E0
E000E0
E000E0
E000E0
E000E0
E000E0
E000E0
E000E0
E000E0
E000E0
1FFFE0
1FFFE0
1FFFE0
1FFFE0
ENDCHAR
STARTCHAR 00FF
ENCODING 255
SWIDTH 413 0
DWIDTH 24 0
BBX 19 40 0 -7
BITMAP
180300
180300
180300
180300
000000
000000
000000
000000
000000
000000
000000
E000E0
E000E0
E000E0
E000E0
E000E0
E000E0
E000E0
E000E0
E000E0
E000E0
E000E0
E000E0
E000E0
E000E0
E000E0
1803E0
1803E0
1803E0
07FCE0
07FCE0
07FCE0
07FCE0
0000E0
0000E0
0000E0
0000E0
1FFF00
1FFF00
1FFF00
ENDCHAR
STARTCHAR 0192
ENCODING 402
SWIDTH 413 0
DWIDTH 24 0
BBX 19 40 0 -7
BITMAP
001FE0
001FE0
001FE0
001FE0
00E000
00E000
00E000
00E000
00E000
00E000
00E000
1FFF00
1FFF00
1FFF00
1FFF00
00E000
00E000
00E000
00E000
00E000
00E000
00E000
00E000
00E000
00E000
00E000
00E000
00E000
00E000
00E000
00E000
00E000
00E000
00E000
00E000
00E000
00E000
FF0000
FF0000
FF0000
ENDCHAR
STARTCHAR 0393
ENCODING 915
SWIDTH 413 0
DWIDTH 24 0
BBX 19 33 0 0
BITMAP
FFFFE0
FFFFE0
FFFFE0
FFFFE0
E00000
E00000
E00000
E00000
E00000
E00000
E00000
E00000
E00000
E00000
E00000
E00000
E00000
E00000
E00000
E00000
E00000
E00000
E00000
E00000
E00000
E00000
E00000
E00000
E00000
E00000
E00000
E00000
E00000
ENDCHAR
STARTCHAR 0398
ENCODING 920
SWIDTH 413 0
DWIDTH 24 0
BBX 13 33 3 0
BITMAP
3FE0
3FE0
3FE0
3FE0
C018
C018
C018
C018
C018
C018
C018
C018
C018
C018
C018
FFF8
FFF8
FFF8
FFF8
C018
C018
C018
C018
C018
C018
C018
C018
C018
C018
3FE0
3FE0
3FE0
3FE0
ENDCHAR
STARTCHAR 03A3
ENCODING 931
SWIDTH 413 0
DWIDTH 24 0
BBX 19 33 0 0
BITMAP
FFFFE0
FFFFE0
FFFFE0
FFFFE0
180000
180000
180000
180000
070000
070000
070000
00E000
00E000
00E000
00E000
001C00
001C00
001C00
00FC00
00E000
00E000
00E000
070000
070000
070000
070000
180000
180000
180000
FFFFE0
FFFFE0
FFFFE0
FFFFE0
ENDCHAR
STARTCHAR 03A6
ENCODING 934
SWIDTH 413 0
DWIDTH 24 0
BBX 19 33 0 0
BITMAP
1FFF00
1FFF00
1FFF00
1FFF00
00E000
00E000
00E000
00E000
1FFF00
1FFF00
1FFF00
E0E0E0
E0E0E0
E0E0E0
E0E0E0
E0E0E0
E0E0E0
E0E0E0
E0E0E0
E0E0E0
E0E0E0
E0E0E0
1FFF00
1FFF00
1FFF00
1FFF00
00E000
00E000
00E000
1FFF00
1FFF00
1FFF00
1FFF00
ENDCHAR
STARTCHAR 03A9
ENCODING 937
SWIDTH 413 0
DWIDTH 24 0
BBX 19 33 0 0
BITMAP
07FC00
07FC00
07FC00
07FC00
180300
180300
180300
180300
E000E0
E000E0
E000E0
E000E0
E000E0
E000E0
E000E0
E000E0
E000E0
E000E0
E000E0
E000E0
E000E0
E000E0
180300
180300
180300
180300
071C00
071C00
071C00
FF1FE0
FF1FE0
FF1FE0
FF1FE0
ENDCHAR
STARTCHAR 03B1
ENCODING 945
SWIDTH 413 0
DWIDTH 24 0
BBX 16 22 0 0
BITMAP
1FE3
1FE3
1FE3
1FE3
E01C
E01C
E01C
E01C
E01C
E01C
E01C
E01C
E01C
E01C
E01C
E01C
E01C
E01C
1FE3
1FE3
1FE3
1FE3
ENDCHAR
STARTCHAR 03B4
ENCODING 948
SWIDTH 413 0
DWIDTH 24 0
BBX 19 33 0 0
BITMAP
1FFF00
1FFF00
1FFF00
1FFF00
070000
070000
070000
070000
00E000
00E000
00E000
07FC00
07FC00
07FC00
07FC00
180300
180300
180300
F803E0
E000E0
E000E0
E000E0
E000E0
E000E0
E000E0
E000E0
E000E0
E000E0
E000E0
1FFF00
1FFF00
1FFF00
1FFF00
ENDCHAR
STARTCHAR 03B5
ENCODING 949
SWIDTH 413 0
DWIDTH 24 0
BBX 16 22 0 0
BITMAP
1FFF
1FFF
1FFF
1FFF
E000
E000
E000
FFFC
1FFC
1FFC
1FFC
E000
E000
E000
E000
E000
E000
E000
1FFF
1FFF
1FFF
1FFF
ENDCHAR
STARTCHAR 03C0
ENCODING 960
SWIDTH 413 0
DWIDTH 24 0
BBX 19 22 0 0
BITMAP
FFFFE0
FFFFE0
FFFFE0
FFFFE0
180300
180300
180300
180300
180300
180300
180300
180300
180300
180300
180300
180300
180300
180300
1800E0
1800E0
1800E0
1800E0
ENDCHAR
STARTCHAR 03C3
ENCODING 963
SWIDTH 413 0
DWIDTH 24 0
BBX 19 22 0 0
BITMAP
1FFFE0
1FFFE0
1FFFE0
1FFFE0
E01C00
E01C00
E01C00
E01F00
E00300
E00300
E00300
E00300
E00300
E00300
E00300
E00300
E00300
E00300
1FFC00
1FFC00
1FFC00
1FFC00
ENDCHAR
STARTCHAR 03C4
ENCODING 964
SWIDTH 413 0
DWIDTH 24 0
BBX 19 22 0 0
BITMAP
1FFFE0
1FFFE0
1FFFE0
1FFFE0
E0E000
E0E000
E0E000
E0E000
00E000
00E000
00E000
00E000
00E000
00E000
00E000
00E000
00E000
00E000
001F00
001F00
001F00
001F00
ENDCHAR
STARTCHAR 03C6
ENCODING 966
SWIDTH 413 0
DWIDTH 24 0
BBX 16 29 0 0
BITMAP
0003
0003
0003
0003
1FFC
1FFC
1FFC
E01F
E01F
E01F
E01F
E0E3
E0E3
E0E3
E7E3
E703
E703
E703
F803
F803
F803
F803
1FFC
1FFC
1FFC
E000
E000
E000
E000
ENDCHAR
STARTCHAR 2022
ENCODING 8226
SWIDTH 413 0
DWIDTH 24 0
BBX 16 22 3 7
BITMAP
3FF8
3FF8
3FF8
3FF8
FFFF
FFFF
FFFF
FFFF
FFFF
FFFF
FFFF
FFFF
FFFF
FFFF
FFFF
FFFF
FFFF
FFFF
3FF8
3FF8
3FF8
3FF8
ENDCHAR
STARTCHAR 203C
ENCODING 8252
SWIDTH 413 0
DWIDTH 24 0
BBX 11 33 5 0
BITMAP
E060
E060
E060
E060
E060
E060
E060
E060
E060
E060
E060
E060
E060
E060
E060
E060
E060
E060
E060
E060
E060
E060
0000
0000
0000
0000
E060
E060
E060
E060
E060
E060
E060
ENDCHAR
STARTCHAR 207F
ENCODING 8319
SWIDTH 413 0
DWIDTH 24 0
BBX 16 22 0 11
BITMAP
E7FC
E7FC
E7FC
E7FC
1803
1803
1803
1803
1803
1803
1803
1803
1803
1803
1803
1803
1803
1803
1803
1803
1803
1803
ENDCHAR
STARTCHAR 20A7
ENCODING 8359
SWIDTH 413 0
DWIDTH 24 0
BBX 19 37 0 -4
BITMAP
FFFC00
FFFC00
FFFC00
FFFC00
E00300
E00300
E00300
E00300
E00300
E00300
E00300
FFFC00
FFFC00
FFFC00
FFFC00
E00000
E00000
E00000
E01C00
E01C00
E01C00
E01C00
E01FE0
E01FE0
E01FE0
E01FE0
E01C00
E01C00
E01C00
E01C00
E01C00
E01C00
E01C00
0003E0
0003E0
0003E0
0003E0
ENDCHAR
STARTCHAR 2190
ENCODING 8592
SWIDTH 413 0
DWIDTH 24 0
BBX 19 18 0 7
BITMAP
070000
070000
070000
180000
180000
180000
180000
FFFFE0
FFFFE0
FFFFE0
FFFFE0
180000
180000
180000
070000
070000
070000
070000
ENDCHAR
STARTCHAR 2191
ENCODING 8593
SWIDTH 413 0
DWIDTH 24 0
BBX 13 33 3 0
BITMAP
0700
0700
0700
0700
3FE0
3FE0
3FE0
3FE0
C718
C718
C718
0700
0700
0700
0700
0700
0700
0700
0700
0700
0700
0700
0700
0700
0700
0700
0700
0700
0700
0700
0700
0700
0700
ENDCHAR
STARTCHAR 2192
ENCODING 8594
SWIDTH 413 0
DWIDTH 24 0
BBX 19 18 0 7
BITMAP
001C00
001C00
001C00
000300
000300
000300
000300
FFFFE0
FFFFE0
FFFFE0
FFFFE0
000300
000300
000300
001C00
001C00
001C00
001C00
ENDCHAR
STARTCHAR 2193
ENCODING 8595
SWIDTH 413 0
DWIDTH 24 0
BBX 13 33 3 0
BITMAP
0700
0700
0700
0700
0700
0700
0700
0700
0700
0700
0700
0700
0700
0700
0700
0700
0700
0700
0700
0700
0700
0700
C718
C718
C718
C718
3FE0
3FE0
3FE0
0700
0700
0700
0700
ENDCHAR
STARTCHAR 2194
ENCODING 8596
SWIDTH 413 0
DWIDTH 24 0
BBX 19 18 0 7
BITMAP
071C00
071C00
071C00
180300
180300
180300
180300
FFFFE0
FFFFE0
FFFFE0
FFFFE0
180300
180300
180300
071C00
071C00
071C00
071C00
ENDCHAR
STARTCHAR 2195
ENCODING 8597
SWIDTH 413 0
DWIDTH 24 0
BBX 13 33 3 0
BITMAP
0700
0700
0700
0700
3FE0
3FE0
3FE0
3FE0
C718
C718
C718
0700
0700
0700
0700
0700
0700
0700
0700
0700
0700
0700
C718
C718
C718
C718
3FE0
3FE0
3FE0
0700
0700
0700
0700
ENDCHAR
STARTCHAR 21A8
ENCODING 8616
SWIDTH 413 0
DWIDTH 24 0
BBX 13 37 3 -4
BITMAP
0700
0700
0700
0700
3FE0
3FE0
3FE0
3FE0
C718
C718
C718
0700
0700
0700
0700
0700
0700
0700
0700
0700
0700
0700
C718
C718
C718
C718
3FE0
3FE0
3FE0
0700
0700
0700
0700
FFF8
FFF8
FFF8
FFF8
ENDCHAR
STARTCHAR 2219
ENCODING 8729
SWIDTH 413 0
DWIDTH 24 0
BBX 9 8 5 14
BITMAP
FF80
FF80
FF80
FF80
FF80
FF80
FF80
FF80
ENDCHAR
STARTCHAR 221A
ENCODING 8730
SWIDTH 413 0
DWIDTH 24 0
BBX 22 37 0 -4
BITMAP
001FFC
001FFC
001FFC
001FFC
001C00
001C00
001C00
001C00
001C00
001C00
001C00
001C00
001C00
001C00
001C00
001C00
001C00
001C00
E01C00
E01C00
E01C00
E01C00
181C00
181C00
181C00
181C00
071C00
071C00
071C00
00FC00
00FC00
00FC00
00FC00
001C00
001C00
001C00
001C00
ENDCHAR
STARTCHAR 221E
ENCODING 8734
SWIDTH 413 0
DWIDTH 24 0
BBX 19 15 0 7
BITMAP
1F1F00
1F1F00
1F1F00
1F1F00
E0E0E0
E0E0E0
E0E0E0
E0E0E0
E0E0E0
E0E0E0
E0E0E0
1F1F00
1F1F00
1F1F00
1F1F00
ENDCHAR
STARTCHAR 221F
ENCODING 8735
SWIDTH 413 0
DWIDTH 24 0
BBX 19 18 0 0
BITMAP
E00000
E00000
E00000
E00000
E00000
E00000
E00000
E00000
E00000
E00000
E00000
E00000
E00000
E00000
FFFFE0
FFFFE0
FFFFE0
FFFFE0
ENDCHAR
STARTCHAR 2229
ENCODING 8745
SWIDTH 413 0
DWIDTH 24 0
BBX 19 33 0 0
BITMAP
1FFF00
1FFF00
1FFF00
1FFF00
E000E0
E000E0
E000E0
E000E0
E000E0
E000E0
E000E0
E000E0
E000E0
E000E0
E000E0
E000E0
E000E0
E000E0
E000E0
E000E0
E000E0
E000E0
E000E0
E000E0
E000E0
E000E0
E000E0
E000E0
E000E0
E000E0
E000E0
E000E0
E000E0
ENDCHAR
STARTCHAR 2248
ENCODING 8776
SWIDTH 413 0
DWIDTH 24 0
BBX 16 18 3 7
BITMAP
3F07
3F07
3F07
C0F8
C0F8
C0F8
C0F8
0000
0000
0000
3F07
3F07
3F07
3F07
C0F8
C0F8
C0F8
C0F8
ENDCHAR
STARTCHAR 2261
ENCODING 8801
SWIDTH 413 0
DWIDTH 24 0
BBX 19 25 0 4
BITMAP
FFFFE0
FFFFE0
FFFFE0
FFFFE0
000000
000000
000000
000000
000000
000000
000000
FFFFE0
FFFFE0
FFFFE0
FFFFE0
000000
000000
000000
000000
000000
000000
000000
FFFFE0
FFFFE0
FFFFE0
ENDCHAR
STARTCHAR 2264
ENCODING 8804
SWIDTH 413 0
DWIDTH 24 0
BBX 16 33 3 0
BITMAP
0018
0018
0018
0018
00E0
00E0
00E0
00E0
0700
0700
0700
3800
3800
3800
3800
0700
0700
0700
07E0
00E0
00E0
00E0
0018
0018
0018
0018
0000
0000
0000
FFFF
FFFF
FFFF
FFFF
ENDCHAR
STARTCHAR 2265
ENCODING 8805
SWIDTH 413 0
DWIDTH 24 0
BBX 16 33 3 0
BITMAP
3800
3800
3800
3800
0700
0700
0700
0700
00E0
00E0
00E0
0018
0018
0018
0018
00E0
00E0
00E0
07E0
0700
0700
0700
3800
3800
3800
3800
0000
0000
0000
FFFF
FFFF
FFFF
FFFF
ENDCHAR
STARTCHAR 2302
ENCODING 8962
SWIDTH 413 0
DWIDTH 24 0
BBX 19 22 0 0
BITMAP
00E000
00E000
00E000
00E000
071C00
071C00
071C00
1F1F00
180300
180300
180300
E000E0
E000E0
E000E0
E000E0
E000E0
E000E0
E000E0
FFFFE0
FFFFE0
FFFFE0
FFFFE0
ENDCHAR
STARTCHAR 2310
ENCODING 8976
SWIDTH 413 0
DWIDTH 24 0
BBX 19 14 0 4
BITMAP
FFFFE0
FFFFE0
FFFFE0
FFFFE0
E00000
E00000
E00000
E00000
E00000
E00000
E00000
E00000
E00000
E00000
ENDCHAR
STARTCHAR 2320
ENCODING 8992
SWIDTH 413 0
DWIDTH 24 0
BBX 11 40 11 -7
BITMAP
1F00
1F00
1F00
1F00
E0E0
E0E0
E0E0
E0E0
E000
E000
E000
E000
E000
E000
E000
E000
E000
E000
E000
E000
E000
E000
E000
E000
E000
E000
E000
E000
E000
E000
E000
E000
E000
E000
E000
E000
E000
E000
E000
E000
ENDCHAR
STARTCHAR 2321
ENCODING 8993
SWIDTH 413 0
DWIDTH 24 0
BBX 9 51 5 -7
BITMAP
0380
0380
0380
0380
0380
0380
0380
0380
0380
0380
0380
0380
0380
0380
0380
0380
0380
0380
0380
0380
0380
0380
0380
0380
0380
0380
0380
0380
0380
0380
0380
0380
0380
0380
0380
0380
0380
0380
0380
0380
0380
0380
0380
0380
E380
E380
E380
E380
1C00
1C00
1C00
ENDCHAR
STARTCHAR 2500
ENCODING 9472
SWIDTH 413 0
DWIDTH 24 0
BBX 24 4 0 14
BITMAP
FFFFFF
FFFFFF
FFFFFF
FFFFFF
ENDCHAR
STARTCHAR 2502
ENCODING 9474
SWIDTH 413 0
DWIDTH 24 0
BBX 3 51 11 -7
BITMAP
E0
E0
E0
E0
E0
E0
E0
E0
E0
E0
E0
E0
E0
E0
E0
E0
E0
E0
E0
E0
E0
E0
E0
E0
E0
E0
E0
E0
E0
E0
E0
E0
E0
E0
E0
E0
E0
E0
E0
E0
E0
E0
E0
E0
E0
E0
E0
E0
E0
E0
E0
ENDCHAR
STARTCHAR 250C
ENCODING 9484
SWIDTH 413 0
DWIDTH 24 0
BBX 13 25 11 -7
BITMAP
FFF8
FFF8
FFF8
FFF8
E000
E000
E000
E000
E000
E000
E000
E000
E000
E000
E000
E000
E000
E000
E000
E000
E000
E000
E000
E000
E000
ENDCHAR
STARTCHAR 2510
ENCODING 9488
SWIDTH 413 0
DWIDTH 24 0
BBX 14 25 0 -7
BITMAP
FFFC
FFFC
FFFC
FFFC
001C
001C
001C
001C
001C
001C
001C
001C
001C
001C
001C
001C
001C
001C
001C
001C
001C
001C
001C
001C
001C
ENDCHAR
STARTCHAR 2514
ENCODING 9492
SWIDTH 413 0
DWIDTH 24 0
BBX 13 30 11 14
BITMAP
E000
E000
E000
E000
E000
E000
E000
E000
E000
E000
E000
E000
E000
E000
E000
E000
E000
E000
E000
E000
E000
E000
E000
E000
E000
E000
FFF8
FFF8
FFF8
FFF8
ENDCHAR
STARTCHAR 2518
ENCODING 9496
SWIDTH 413 0
DWIDTH 24 0
BBX 14 30 0 14
BITMAP
001C
001C
001C
001C
001C
001C
001C
001C
001C
001C
001C
001C
001C
001C
001C
001C
001C
001C
001C
001C
001C
001C
001C
001C
001C
001C
FFFC
FFFC
FFFC
FFFC
ENDCHAR
STARTCHAR 251C
ENCODING 9500
SWIDTH 413 0
DWIDTH 24 0
BBX 13 51 11 -7
BITMAP
E000
E000
E000
E000
E000
E000
E000
E000
E000
E000
E000
E000
E000
E000
E000
E000
E000
E000
E000
E000
E000
E000
E000
E000
E000
E000
FFF8
FFF8
FFF8
FFF8
E000
E000
E000
E000
E000
E000
E000
E000
E000
E000
E000
E000
E000
E000
E000
E000
E000
E000
E000
E000
E000
ENDCHAR
STARTCHAR 2524
ENCODING 9508
SWIDTH 413 0
DWIDTH 24 0
BBX 14 51 0 -7
BITMAP
001C
001C
001C
001C
001C
001C
001C
001C
001C
001C
001C
001C
001C
001C
001C
001C
001C
001C
001C
001C
001C
001C
001C
001C
001C
001C
FFFC
FFFC
FFFC
FFFC
001C
001C
001C
001C
001C
001C
001C
001C
001C
001C
001C
001C
001C
001C
001C
001C
001C
001C
001C
001C
001C
ENDCHAR
STARTCHAR 252C
ENCODING 9516
SWIDTH 413 0
DWIDTH 24 0
BBX 24 25 0 -7
BITMAP
FFFFFF
FFFFFF
FFFFFF
FFFFFF
001C00
001C00
001C00
001C00
001C00
001C00
001C00
001C00
001C00
001C00
001C00
001C00
001C00
001C00
001C00
001C00
001C00
001C00
001C00
001C00
001C00
ENDCHAR
STARTCHAR 2534
ENCODING 9524
SWIDTH 413 0
DWIDTH 24 0
BBX 24 30 0 14
BITMAP
001C00
001C00
001C00
001C00
001C00
001C00
001C00
001C00
001C00
001C00
001C00
001C00
001C00
001C00
001C00
001C00
001C00
001C00
001C00
001C00
001C00
001C00
001C00
001C00
001C00
001C00
FFFFFF
FFFFFF
FFFFFF
FFFFFF
ENDCHAR
STARTCHAR 253C
ENCODING 9532
SWIDTH 413 0
DWIDTH 24 0
BBX 24 51 0 -7
BITMAP
001C00
001C00
001C00
001C00
001C00
001C00
001C00
001C00
001C00
001C00
001C00
001C00
001C00
001C00
001C00
001C00
001C00
001C00
001C00
001C00
001C00
001C00
001C00
001C00
001C00
001C00
FFFFFF
FFFFFF
FFFFFF
FFFFFF
001C00
001C00
001C00
001C00
001C00
001C00
001C00
001C00
001C00
001C00
001C00
001C00
001C00
001C00
001C00
001C00
001C00
001C00
001C00
001C00
001C00
ENDCHAR
STARTCHAR 2550
ENCODING 9552
SWIDTH 413 0
DWIDTH 24 0
BBX 24 11 0 11
BITMAP
FFFFFF
FFFFFF
FFFFFF
FFFFFF
000000
000000
000000
FFFFFF
FFFFFF
FFFFFF
FFFFFF
ENDCHAR
STARTCHAR 2551
ENCODING 9553
SWIDTH 413 0
DWIDTH 24 0
BBX 8 51 8 -7
BITMAP
E3
E3
E3
E3
E3
E3
E3
E3
E3
E3
E3
E3
E3
E3
E3
E3
E3
E3
E3
E3
E3
E3
E3
E3
E3
E3
E3
E3
E3
E3
E3
E3
E3
E3
E3
E3
E3
E3
E3
E3
E3
E3
E3
E3
E3
E3
E3
E3
E3
E3
E3
ENDCHAR
STARTCHAR 2552
ENCODING 9554
SWIDTH 413 0
DWIDTH 24 0
BBX 13 29 11 -7
BITMAP
FFF8
FFF8
FFF8
FFF8
E000
E000
E000
FFF8
FFF8
FFF8
FFF8
E000
E000
E000
E000
E000
E000
E000
E000
E000
E000
E000
E000
E000
E000
E000
E000
E000
E000
ENDCHAR
STARTCHAR 2553
ENCODING 9555
SWIDTH 413 0
DWIDTH 24 0
BBX 16 25 8 -7
BITMAP
FFFF
FFFF
FFFF
FFFF
E300
E300
E300
E300
E300
E300
E300
E300
E300
E300
E300
E300
E300
E300
E300
E300
E300
E300
E300
E300
E300
ENDCHAR
STARTCHAR 2554
ENCODING 9556
SWIDTH 413 0
DWIDTH 24 0
BBX 16 29 8 -7
BITMAP
FFFF
FFFF
FFFF
FFFF
E000
E000
E000
E3FF
E3FF
E3FF
E3FF
E300
E300
E300
E300
E300
E300
E300
E300
E300
E300
E300
E300
E300
E300
E300
E300
E300
E300
ENDCHAR
STARTCHAR 2555
ENCODING 9557
SWIDTH 413 0
DWIDTH 24 0
BBX 14 29 0 -7
BITMAP
FFFC
FFFC
FFFC
FFFC
001C
001C
001C
FFFC
FFFC
FFFC
FFFC
001C
001C
001C
001C
001C
001C
001C
001C
001C
001C
001C
001C
001C
001C
001C
001C
001C
001C
ENDCHAR
STARTCHAR 2556
ENCODING 9558
SWIDTH 413 0
DWIDTH 24 0
BBX 16 25 0 -7
BITMAP
FFFF
FFFF
FFFF
FFFF
00E3
00E3
00E3
00E3
00E3
00E3
00E3
00E3
00E3
00E3
00E3
00E3
00E3
00E3
00E3
00E3
00E3
00E3
00E3
00E3
00E3
ENDCHAR
STARTCHAR 2557
ENCODING 9559
SWIDTH 413 0
DWIDTH 24 0
BBX 16 29 0 -7
BITMAP
FFFF
FFFF
FFFF
FFFF
0003
0003
0003
FFE3
FFE3
FFE3
FFE3
00E3
00E3
00E3
00E3
00E3
00E3
00E3
00E3
00E3
00E3
00E3
00E3
00E3
00E3
00E3
00E3
00E3
00E3
ENDCHAR
STARTCHAR 2558
ENCODING 9560
SWIDTH 413 0
DWIDTH 24 0
BBX 13 33 11 11
BITMAP
E000
E000
E000
E000
E000
E000
E000
E000
E000
E000
E000
E000
E000
E000
E000
E000
E000
E000
E000
E000
E000
E000
FFF8
FFF8
FFF8
FFF8
E000
E000
E000
FFF8
FFF8
FFF8
FFF8
ENDCHAR
STARTCHAR 2559
ENCODING 9561
SWIDTH 413 0
DWIDTH 24 0
BBX 16 30 8 14
BITMAP
E300
E300
E300
E300
E300
E300
E300
E300
E300
E300
E300
E300
E300
E300
E300
E300
E300
E300
E300
E300
E300
E300
E300
E300
E300
E300
FFFF
FFFF
FFFF
FFFF
ENDCHAR
STARTCHAR 255A
ENCODING 9562
SWIDTH 413 0
DWIDTH 24 0
BBX 16 33 8 11
BITMAP
E300
E300
E300
E300
E300
E300
E300
E300
E300
E300
E300
E300
E300
E300
E300
E300
E300
E300
E300
E300
E300
E300
E3FF
E3FF
E3FF
E3FF
E000
E000
E000
FFFF
FFFF
FFFF
FFFF
ENDCHAR
STARTCHAR 255B
ENCODING 9563
SWIDTH 413 0
DWIDTH 24 0
BBX 14 33 0 11
BITMAP
001C
001C
001C
001C
001C
001C
001C
001C
001C
001C
001C
001C
001C
001C
001C
001C
001C
001C
001C
001C
001C
001C
FFFC
FFFC
FFFC
FFFC
001C
001C
001C
FFFC
FFFC
FFFC
FFFC
ENDCHAR
STARTCHAR 255C
ENCODING 9564
SWIDTH 413 0
DWIDTH 24 0
BBX 16 30 0 14
BITMAP
00E3
00E3
00E3
00E3
00E3
00E3
00E3
00E3
00E3
00E3
00E3
00E3
00E3
00E3
00E3
00E3
00E3
00E3
00E3
00E3
00E3
00E3
00E3
00E3
00E3
00E3
FFFF
FFFF
FFFF
FFFF
ENDCHAR
STARTCHAR 255D
ENCODING 9565
SWIDTH 413 0
DWIDTH 24 0
BBX 16 33 0 11
BITMAP
00E3
00E3
00E3
00E3
00E3
00E3
00E3
00E3
00E3
00E3
00E3
00E3
00E3
00E3
00E3
00E3
00E3
00E3
00E3
00E3
00E3
00E3
FFE3
FFE3
FFE3
FFE3
0003
0003
0003
FFFF
FFFF
FFFF
FFFF
ENDCHAR
STARTCHAR 255E
ENCODING 9566
SWIDTH 413 0
DWIDTH 24 0
BBX 13 51 11 -7
BITMAP
E000
E000
E000
E000
E000
E000
E000
E000
E000
E000
E000
E000
E000
E000
E000
E000
E000
E000
E000
E000
E000
E000
FFF8
FFF8
FFF8
FFF8
E000
E000
E000
FFF8
FFF8
FFF8
FFF8
E000
E000
E000
E000
E000
E000
E000
E000
E000
E000
E000
E000
E000
E000
E000
E000
E000
E000
ENDCHAR
STARTCHAR 255F
ENCODING 9567
SWIDTH 413 0
DWIDTH 24 0
BBX 16 51 8 -7
BITMAP
E300
E300
E300
E300
E300
E300
E300
E300
E300
E300
E300
E300
E300
E300
E300
E300
E300
E300
E300
E300
E300
E300
E300
E300
E300
E300
E3FF
E3FF
E3FF
E3FF
E300
E300
E300
E300
E300
E300
E300
E300
E300
E300
E300
E300
E300
E300
E300
E300
E300
E300
E300
E300
E300
ENDCHAR
STARTCHAR 2560
ENCODING 9568
SWIDTH 413 0
DWIDTH 24 0
BBX 16 51 8 -7
BITMAP
E300
E300
E300
E300
E300
E300
E300
E300
E300
E300
E300
E300
E300
E300
E300
E300
E300
E300
E300
E300
E300
E300
E3FF
E3FF
E3FF
E3FF
E000
E000
E000
E3FF
E3FF
E3FF
E3FF
E300
E300
E300
E300
E300
E300
E300
E300
E300
E300
E300
E300
E300
E300
E300
E300
E300
E300
ENDCHAR
STARTCHAR 2561
ENCODING 9569
SWIDTH 413 0
DWIDTH 24 0
BBX 14 51 0 -7
BITMAP
001C
001C
001C
001C
001C
001C
001C
001C
001C
001C
001C
001C
001C
001C
001C
001C
001C
001C
001C
001C
001C
001C
FFFC
FFFC
FFFC
FFFC
001C
001C
001C
FFFC
FFFC
FFFC
FFFC
001C
001C
001C
001C
001C
001C
001C
001C
001C
001C
001C
001C
001C
001C
001C
001C
001C
001C
ENDCHAR
STARTCHAR 2562
ENCODING 9570
SWIDTH 413 0
DWIDTH 24 0
BBX 16 51 0 -7
BITMAP
00E3
00E3
00E3
00E3
00E3
00E3
00E3
00E3
00E3
00E3
00E3
00E3
00E3
00E3
00E3
00E3
00E3
00E3
00E3
00E3
00E3
00E3
00E3
00E3
00E3
00E3
FFE3
FFE3
FFE3
FFE3
00E3
00E3
00E3
00E3
00E3
00E3
00E3
00E3
00E3
00E3
00E3
00E3
00E3
00E3
00E3
00E3
00E3
00E3
00E3
00E3
00E3
ENDCHAR
STARTCHAR 2563
ENCODING 9571
SWIDTH 413 0
DWIDTH 24 0
BBX 16 51 0 -7
BITMAP
00E3
00E3
00E3
00E3
00E3
00E3
00E3
00E3
00E3
00E3
00E3
00E3
00E3
00E3
00E3
00E3
00E3
00E3
00E3
00E3
00E3
00E3
FFE3
FFE3
FFE3
FFE3
0003
0003
0003
FFE3
FFE3
FFE3
FFE3
00E3
00E3
00E3
00E3
00E3
00E3
00E3
00E3
00E3
00E3
00E3
00E3
00E3
00E3
00E3
00E3
00E3
00E3
ENDCHAR
STARTCHAR 2564
ENCODING 9572
SWIDTH 413 0
DWIDTH 24 0
BBX 24 29 0 -7
BITMAP
FFFFFF
FFFFFF
FFFFFF
FFFFFF
000000
000000
000000
FFFFFF
FFFFFF
FFFFFF
FFFFFF
001C00
001C00
001C00
001C00
001C00
001C00
001C00
001C00
001C00
001C00
001C00
001C00
001C00
001C00
001C00
001C00
001C00
001C00
ENDCHAR
STARTCHAR 2565
ENCODING 9573
SWIDTH 413 0
DWIDTH 24 0
BBX 24 25 0 -7
BITMAP
FFFFFF
FFFFFF
FFFFFF
FFFFFF
00E300
00E300
00E300
00E300
00E300
00E300
00E300
00E300
00E300
00E300
00E300
00E300
00E300
00E300
00E300
00E300
00E300
00E300
00E300
00E300
00E300
ENDCHAR
STARTCHAR 2566
ENCODING 9574
SWIDTH 413 0
DWIDTH 24 0
BBX 24 29 0 -7
BITMAP
FFFFFF
FFFFFF
FFFFFF
FFFFFF
000000
000000
000000
FFE3FF
FFE3FF
FFE3FF
FFE3FF
00E300
00E300
00E300
00E300
00E300
00E300
00E300
00E300
00E300
00E300
00E300
00E300
00E300
00E300
00E300
00E300
00E300
00E300
ENDCHAR
STARTCHAR 2567
ENCODING 9575
SWIDTH 413 0
DWIDTH 24 0
BBX 24 33 0 11
BITMAP
001C00
001C00
001C00
001C00
001C00
001C00
001C00
001C00
001C00
001C00
001C00
001C00
001C00
001C00
001C00
001C00
001C00
001C00
001C00
001C00
001C00
001C00
FFFFFF
FFFFFF
FFFFFF
FFFFFF
000000
000000
000000
FFFFFF
FFFFFF
FFFFFF
FFFFFF
ENDCHAR
STARTCHAR 2568
ENCODING 9576
SWIDTH 413 0
DWIDTH 24 0
BBX 24 30 0 14
BITMAP
00E300
00E300
00E300
00E300
00E300
00E300
00E300
00E300
00E300
00E300
00E300
00E300
00E300
00E300
00E300
00E300
00E300
00E300
00E300
00E300
00E300
00E300
00E300
00E300
00E300
00E300
FFFFFF
FFFFFF
FFFFFF
FFFFFF
ENDCHAR
STARTCHAR 2569
ENCODING 9577
SWIDTH 413 0
DWIDTH 24 0
BBX 24 33 0 11
BITMAP
00E300
00E300
00E300
00E300
00E300
00E300
00E300
00E300
00E300
00E300
00E300
00E300
00E300
00E300
00E300
00E300
00E300
00E300
00E300
00E300
00E300
00E300
FFE3FF
FFE3FF
FFE3FF
FFE3FF
000000
000000
000000
FFFFFF
FFFFFF
FFFFFF
FFFFFF
ENDCHAR
STARTCHAR 256A
ENCODING 9578
SWIDTH 413 0
DWIDTH 24 0
BBX 24 51 0 -7
BITMAP
001C00
001C00
001C00
001C00
001C00
001C00
001C00
001C00
001C00
001C00
001C00
001C00
001C00
001C00
001C00
001C00
001C00
001C00
001C00
001C00
001C00
001C00
FFFFFF
FFFFFF
FFFFFF
FFFFFF
001C00
001C00
001C00
FFFFFF
FFFFFF
FFFFFF
FFFFFF
001C00
001C00
001C00
001C00
001C00
001C00
001C00
001C00
001C00
001C00
001C00
001C00
001C00
001C00
001C00
001C00
001C00
001C00
ENDCHAR
STARTCHAR 256B
ENCODING 9579
SWIDTH 413 0
DWIDTH 24 0
BBX 24 51 0 -7
BITMAP
00E300
00E300
00E300
00E300
00E300
00E300
00E300
00E300
00E300
00E300
00E300
00E300
00E300
00E300
00E300
00E300
00E300
00E300
00E300
00E300
00E300
00E300
00E300
00E300
00E300
00E300
FFFFFF
FFFFFF
FFFFFF
FFFFFF
00E300
00E300
00E300
00E300
00E300
00E300
00E300
00E300
00E300
00E300
00E300
00E300
00E300
00E300
00E300
00E300
00E300
00E300
00E300
00E300
00E300
ENDCHAR
STARTCHAR 256C
ENCODING 9580
SWIDTH 413 0
DWIDTH 24 0
BBX 24 51 0 -7
BITMAP
00E300
00E300
00E300
00E300
00E300
00E300
00E300
00E300
00E300
00E300
00E300
00E300
00E300
00E300
00E300
00E300
00E300
00E300
00E300
00E300
00E300
00E300
FFE3FF
FFE3FF
FFE3FF
FFE3FF
000000
000000
000000
FFE3FF
FFE3FF
FFE3FF
FFE3FF
00E300
00E300
00E300
00E300
00E300
00E300
00E300
00E300
00E300
00E300
00E300
00E300
00E300
00E300
00E300
00E300
00E300
00E300
ENDCHAR
STARTCHAR 2580
ENCODING 9600
SWIDTH 413 0
DWIDTH 24 0
BBX 24 26 0 18
BITMAP
FFFFFF
FFFFFF
FFFFFF
FFFFFF
FFFFFF
FFFFFF
FFFFFF
FFFFFF
FFFFFF
FFFFFF
FFFFFF
FFFFFF
FFFFFF
FFFFFF
FFFFFF
FFFFFF
FFFFFF
FFFFFF
FFFFFF
FFFFFF
FFFFFF
FFFFFF
FFFFFF
FFFFFF
FFFFFF
FFFFFF
ENDCHAR
STARTCHAR 2584
ENCODING 9604
SWIDTH 413 0
DWIDTH 24 0
BBX 24 25 0 -7
BITMAP
FFFFFF
FFFFFF
FFFFFF
FFFFFF
FFFFFF
FFFFFF
FFFFFF
FFFFFF
FFFFFF
FFFFFF
FFFFFF
FFFFFF
FFFFFF
FFFFFF
FFFFFF
FFFFFF
FFFFFF
FFFFFF
FFFFFF
FFFFFF
FFFFFF
FFFFFF
FFFFFF
FFFFFF
FFFFFF
ENDCHAR
STARTCHAR 2588
ENCODING 9608
SWIDTH 413 0
DWIDTH 24 0
BBX 24 51 0 -7
BITMAP
FFFFFF
FFFFFF
FFFFFF
FFFFFF
FFFFFF
FFFFFF
FFFFFF
FFFFFF
FFFFFF
FFFFFF
FFFFFF
FFFFFF
FFFFFF
FFFFFF
FFFFFF
FFFFFF
FFFFFF
FFFFFF
FFFFFF
FFFFFF
FFFFFF
FFFFFF
FFFFFF
FFFFFF
FFFFFF
FFFFFF
FFFFFF
FFFFFF
FFFFFF
FFFFFF
FFFFFF
FFFFFF
FFFFFF
FFFFFF
FFFFFF
FFFFFF
FFFFFF
FFFFFF
FFFFFF
FFFFFF
FFFFFF
FFFFFF
FFFFFF
FFFFFF
FFFFFF
FFFFFF
FFFFFF
FFFFFF
FFFFFF
FFFFFF
FFFFFF
ENDCHAR
STARTCHAR 258C
ENCODING 9612
SWIDTH 413 0
DWIDTH 24 0
BBX 11 51 0 -7
BITMAP
FFE0
FFE0
FFE0
FFE0
FFE0
FFE0
FFE0
FFE0
FFE0
FFE0
FFE0
FFE0
FFE0
FFE0
FFE0
FFE0
FFE0
FFE0
FFE0
FFE0
FFE0
FFE0
FFE0
FFE0
FFE0
FFE0
FFE0
FFE0
FFE0
FFE0
FFE0
FFE0
FFE0
FFE0
FFE0
FFE0
FFE0
FFE0
FFE0
FFE0
FFE0
FFE0
FFE0
FFE0
FFE0
FFE0
FFE0
FFE0
FFE0
FFE0
FFE0
ENDCHAR
STARTCHAR 2590
ENCODING 9616
SWIDTH 413 0
DWIDTH 24 0
BBX 13 51 11 -7
BITMAP
FFF8
FFF8
FFF8
FFF8
FFF8
FFF8
FFF8
FFF8
FFF8
FFF8
FFF8
FFF8
FFF8
FFF8
FFF8
FFF8
FFF8
FFF8
FFF8
FFF8
FFF8
FFF8
FFF8
FFF8
FFF8
FFF8
FFF8
FFF8
FFF8
FFF8
FFF8
FFF8
FFF8
FFF8
FFF8
FFF8
FFF8
FFF8
FFF8
FFF8
FFF8
FFF8
FFF8
FFF8
FFF8
FFF8
FFF8
FFF8
FFF8
FFF8
FFF8
ENDCHAR
STARTCHAR 2591
ENCODING 9617
SWIDTH 413 0
DWIDTH 24 0
BBX 19 48 0 -4
BITMAP
E0E0E0
E0E0E0
E0E0E0
E0E0E0
000000
000000
000000
000000
E0E0E0
E0E0E0
E0E0E0
000000
000000
000000
000000
E0E0E0
E0E0E0
E0E0E0
E0E0E0
000000
000000
000000
E0E0E0
E0E0E0
E0E0E0
E0E0E0
000000
000000
000000
E0E0E0
E0E0E0
E0E0E0
E0E0E0
000000
000000
000000
000000
E0E0E0
E0E0E0
E0E0E0
000000
000000
000000
000000
E0E0E0
E0E0E0
E0E0E0
E0E0E0
ENDCHAR
STARTCHAR 2592
ENCODING 9618
SWIDTH 413 0
DWIDTH 24 0
BBX 22 51 0 -7
BITMAP
E0E0E0
E0E0E0
E0E0E0
E0E0E0
181C1C
181C1C
181C1C
181C1C
E0E0E0
E0E0E0
E0E0E0
181C1C
181C1C
181C1C
181C1C
E0E0E0
E0E0E0
E0E0E0
E0E0E0
181C1C
181C1C
181C1C
E0E0E0
E0E0E0
E0E0E0
E0E0E0
181C1C
181C1C
181C1C
F8FCFC
E0E0E0
E0E0E0
E0E0E0
181C1C
181C1C
181C1C
181C1C
E0E0E0
E0E0E0
E0E0E0
181C1C
181C1C
181C1C
181C1C
E0E0E0
E0E0E0
E0E0E0
E0E0E0
181C1C
181C1C
181C1C
ENDCHAR
STARTCHAR 2593
ENCODING 9619
SWIDTH 413 0
DWIDTH 24 0
BBX 22 51 0 -7
BITMAP
18E31C
18E31C
18E31C
18E31C
E71CE0
E71CE0
E71CE0
E71CE0
18E31C
18E31C
18E31C
E71CE0
E71CE0
E71CE0
E71CE0
18E31C
18E31C
18E31C
18E31C
E71CE0
E71CE0
E71CE0
18E31C
18E31C
18E31C
18E31C
E71CE0
E71CE0
E71CE0
FFFFFC
18E31C
18E31C
18E31C
E71CE0
E71CE0
E71CE0
E71CE0
18E31C
18E31C
18E31C
E71CE0
E71CE0
E71CE0
E71CE0
18E31C
18E31C
18E31C
18E31C
E71CE0
E71CE0
E71CE0
ENDCHAR
STARTCHAR 25A0
ENCODING 9632
SWIDTH 413 0
DWIDTH 24 0
BBX 13 22 3 0
BITMAP
FFF8
FFF8
FFF8
FFF8
FFF8
FFF8
FFF8
FFF8
FFF8
FFF8
FFF8
FFF8
FFF8
FFF8
FFF8
FFF8
FFF8
FFF8
FFF8
FFF8
FFF8
FFF8
ENDCHAR
STARTCHAR 25AC
ENCODING 9644
SWIDTH 413 0
DWIDTH 24 0
BBX 19 11 0 0
BITMAP
FFFFE0
FFFFE0
FFFFE0
FFFFE0
FFFFE0
FFFFE0
FFFFE0
FFFFE0
FFFFE0
FFFFE0
FFFFE0
ENDCHAR
STARTCHAR 25B2
ENCODING 9650
SWIDTH 413 0
DWIDTH 24 0
BBX 19 18 0 7
BITMAP
00E000
00E000
00E000
07FC00
07FC00
07FC00
07FC00
1FFF00
1FFF00
1FFF00
FFFFE0
FFFFE0
FFFFE0
FFFFE0
FFFFE0
FFFFE0
FFFFE0
FFFFE0
ENDCHAR
STARTCHAR 25BA
ENCODING 9658
SWIDTH 413 0
DWIDTH 24 0
BBX 13 33 3 0
BITMAP
C000
C000
C000
C000
F800
F800
F800
F800
FF00
FF00
FF00
FFE0
FFE0
FFE0
FFE0
FFF8
FFF8
FFF8
FFF8
FFE0
FFE0
FFE0
FF00
FF00
FF00
FF00
F800
F800
F800
C000
C000
C000
C000
ENDCHAR
STARTCHAR 25BC
ENCODING 9660
SWIDTH 413 0
DWIDTH 24 0
BBX 19 18 0 7
BITMAP
FFFFE0
FFFFE0
FFFFE0
FFFFE0
FFFFE0
FFFFE0
FFFFE0
1FFF00
1FFF00
1FFF00
1FFF00
07FC00
07FC00
07FC00
00E000
00E000
00E000
00E000
ENDCHAR
STARTCHAR 25C4
ENCODING 9668
SWIDTH 413 0
DWIDTH 24 0
BBX 13 33 3 0
BITMAP
0018
0018
0018
0018
00F8
00F8
00F8
00F8
07F8
07F8
07F8
3FF8
3FF8
3FF8
3FF8
FFF8
FFF8
FFF8
FFF8
3FF8
3FF8
3FF8
07F8
07F8
07F8
07F8
00F8
00F8
00F8
0018
0018
0018
0018
ENDCHAR
STARTCHAR 25CB
ENCODING 9675
SWIDTH 413 0
DWIDTH 24 0
BBX 16 22 3 7
BITMAP
3FF8
3FF8
3FF8
3FF8
C007
C007
C007
C007
C007
C007
C007
C007
C007
C007
C007
C007
C007
C007
3FF8
3FF8
3FF8
3FF8
ENDCHAR
STARTCHAR 25D8
ENCODING 9688
SWIDTH 413 0
DWIDTH 24 0
BBX 22 51 0 -7
BITMAP
FFFFFC
FFFFFC
FFFFFC
FFFFFC
FFFFFC
FFFFFC
FFFFFC
FFFFFC
FFFFFC
FFFFFC
FFFFFC
FFFFFC
FFFFFC
FFFFFC
FFFFFC
F800FC
F800FC
F800FC
F800FC
E0001C
E0001C
E0001C
E0001C
E0001C
E0001C
E0001C
E0001C
E0001C
E0001C
E0001C
E0001C
E0001C
E0001C
F800FC
F800FC
F800FC
F800FC
FFFFFC
FFFFFC
FFFFFC
FFFFFC
FFFFFC
FFFFFC
FFFFFC
FFFFFC
FFFFFC
FFFFFC
FFFFFC
FFFFFC
FFFFFC
FFFFFC
ENDCHAR
STARTCHAR 25D9
ENCODING 9689
SWIDTH 413 0
DWIDTH 24 0
BBX 22 51 0 -7
BITMAP
FFFFFC
FFFFFC
FFFFFC
FFFFFC
FFFFFC
FFFFFC
FFFFFC
FFFFFC
FFFFFC
FFFFFC
FFFFFC
FFFFFC
FFFFFC
FFFFFC
FFFFFC
F800FC
F800FC
F800FC
F800FC
E7FF1C
E7FF1C
E7FF1C
E7FF1C
E7FF1C
E7FF1C
E7FF1C
E7FF1C
E7FF1C
E7FF1C
E7FF1C
E7FF1C
E7FF1C
E7FF1C
F800FC
F800FC
F800FC
F800FC
FFFFFC
FFFFFC
FFFFFC
FFFFFC
FFFFFC
FFFFFC
FFFFFC
FFFFFC
FFFFFC
FFFFFC
FFFFFC
FFFFFC
FFFFFC
FFFFFC
ENDCHAR
STARTCHAR 263A
ENCODING 9786
SWIDTH 413 0
DWIDTH 24 0
BBX 22 33 0 0
BITMAP
07FF00
07FF00
07FF00
07FF00
1800E0
1800E0
1800E0
1800E0
E0001C
E0001C
E0001C
E7031C
E7031C
E7031C
E7031C
E0001C
E0001C
E0001C
E7031C
E7031C
E7031C
E7031C
E0FC1C
E0FC1C
E0FC1C
E0FC1C
1800E0
1800E0
1800E0
07FF00
07FF00
07FF00
07FF00
ENDCHAR
STARTCHAR 263B
ENCODING 9787
SWIDTH 413 0
DWIDTH 24 0
BBX 22 33 0 0
BITMAP
07FF00
07FF00
07FF00
07FF00
1FFFE0
1FFFE0
1FFFE0
1FFFE0
FFFFFC
FFFFFC
FFFFFC
F8FCFC
F8FCFC
F8FCFC
F8FCFC
FFFFFC
FFFFFC
FFFFFC
FFFFFC
F8FCFC
F8FCFC
F8FCFC
FF03FC
FF03FC
FF03FC
FF03FC
1FFFE0
1FFFE0
1FFFE0
07FF00
07FF00
07FF00
07FF00
ENDCHAR
STARTCHAR 263C
ENCODING 9788
SWIDTH 413 0
DWIDTH 24 0
BBX 19 33 0 0
BITMAP
00E000
00E000
00E000
00E000
E0E0E0
E0E0E0
E0E0E0
E0E0E0
1FFF00
1FFF00
1FFF00
180300
180300
180300
180300
F803E0
F803E0
F803E0
F803E0
180300
180300
180300
1FFF00
1FFF00
1FFF00
1FFF00
E0E0E0
E0E0E0
E0E0E0
00E000
00E000
00E000
00E000
ENDCHAR
STARTCHAR 2640
ENCODING 9792
SWIDTH 413 0
DWIDTH 24 0
BBX 13 33 3 0
BITMAP
3FE0
3FE0
3FE0
3FE0
C018
C018
C018
C018
C018
C018
C018
C018
C018
C018
C018
C018
C018
C018
FFF8
3FE0
3FE0
3FE0
0700
0700
0700
0700
FFF8
FFF8
FFF8
0700
0700
0700
0700
ENDCHAR
STARTCHAR 2642
ENCODING 9794
SWIDTH 413 0
DWIDTH 24 0
BBX 22 33 0 0
BITMAP
001FFC
001FFC
001FFC
001FFC
0000FC
0000FC
0000FC
0000FC
00031C
00031C
00031C
1FFC1C
1FFC1C
1FFC1C
1FFC1C
E01C00
E01C00
E01C00
E01C00
E01C00
E01C00
E01C00
E01C00
E01C00
E01C00
E01C00
E01C00
E01C00
E01C00
1FE000
1FE000
1FE000
1FE000
ENDCHAR
STARTCHAR 2660
ENCODING 9824
SWIDTH 413 0
DWIDTH 24 0
BBX 19 33 0 0
BITMAP
00E000
00E000
00E000
00E000
07FC00
07FC00
07FC00
07FC00
1FFF00
1FFF00
1FFF00
FFFFE0
FFFFE0
FFFFE0
FFFFE0
FFFFE0
FFFFE0
FFFFE0
FFFFE0
FFFFE0
FFFFE0
FFFFE0
18E300
18E300
18E300
18E300
00E000
00E000
00E000
07FC00
07FC00
07FC00
07FC00
ENDCHAR
STARTCHAR 2663
ENCODING 9827
SWIDTH 413 0
DWIDTH 24 0
BBX 19 33 0 0
BITMAP
00E000
00E000
00E000
00E000
07FC00
07FC00
07FC00
07FC00
07FC00
07FC00
07FC00
18E300
18E300
18E300
18E300
FFFFE0
FFFFE0
FFFFE0
FFFFE0
FFFFE0
FFFFE0
FFFFE0
18E300
18E300
18E300
18E300
00E000
00E000
00E000
07FC00
07FC00
07FC00
07FC00
ENDCHAR
STARTCHAR 2665
ENCODING 9829
SWIDTH 413 0
DWIDTH 24 0
BBX 19 33 0 0
BITMAP
1F1F00
1F1F00
1F1F00
1F1F00
FFFFE0
FFFFE0
FFFFE0
FFFFE0
FFFFE0
FFFFE0
FFFFE0
FFFFE0
FFFFE0
FFFFE0
FFFFE0
1FFF00
1FFF00
1FFF00
1FFF00
1FFF00
1FFF00
1FFF00
07FC00
07FC00
07FC00
07FC00
07FC00
07FC00
07FC00
00E000
00E000
00E000
00E000
ENDCHAR
STARTCHAR 2666
ENCODING 9830
SWIDTH 413 0
DWIDTH 24 0
BBX 19 25 0 4
BITMAP
00E000
00E000
00E000
00E000
07FC00
07FC00
07FC00
1FFF00
1FFF00
1FFF00
1FFF00
FFFFE0
FFFFE0
FFFFE0
FFFFE0
1FFF00
1FFF00
1FFF00
07FC00
07FC00
07FC00
07FC00
00E000
00E000
00E000
ENDCHAR
STARTCHAR 266A
ENCODING 9834
SWIDTH 413 0
DWIDTH 24 0
BBX 19 48 0 -4
BITMAP
00E000
00E000
00E000
00E000
00FC00
00FC00
00FC00
00FC00
00FF00
00FF00
00FF00
00E3E0
00E3E0
00E3E0
00E3E0
00E0E0
00E0E0
00E0E0
00E0E0
00E0E0
00E0E0
00E0E0
00E300
00E300
00E300
00E300
00E000
00E000
00E000
00E000
00E000
00E000
00E000
1FE000
1FE000
1FE000
1FE000
FF0000
FF0000
FF0000
FF0000
FF0000
FF0000
FF0000
F80000
F80000
F80000
F80000
ENDCHAR
STARTCHAR 266B
ENCODING 9835
SWIDTH 413 0
DWIDTH 24 0
BBX 19 51 0 -7
BITMAP
070000
070000
070000
070000
07E000
07E000
07E000
07E000
071C00
071C00
071C00
07E300
07E300
07E300
07E300
071CE0
071CE0
071CE0
071CE0
0703E0
0703E0
0703E0
0700E0
0700E0
0700E0
0700E0
0700E0
0700E0
0700E0
1F00E0
1F00E0
1F00E0
1F00E0
FF00E0
FF00E0
FF00E0
FF00E0
F800E0
F800E0
F800E0
0003E0
0003E0
0003E0
0003E0
001FE0
001FE0
001FE0
001FE0
001F00
001F00
001F00
ENDCHAR
ENDFONT
